<svg xmlns="http://www.w3.org/2000/svg" width="26" height="31" viewBox="0 0 26 31" fill="none">
<path fill-rule="evenodd" clip-rule="evenodd" d="M18.4359 0.5C18.7042 2.3222 17.9625 4.1073 16.9841 5.3703C15.9374 6.725 14.1331 7.7728 12.385 7.7181C12.0658 5.9736 12.8829 4.1761 13.8771 2.9678C14.9677 1.6342 16.8368 0.6111 18.4359 0.5ZM23.6874 26.1481C24.5886 24.7669 24.9253 24.0702 25.6249 22.5108C20.5365 20.5758 19.7212 13.3418 24.757 10.5653C23.221 8.639 21.0625 7.5225 19.0251 7.5225C17.557 7.5225 16.5512 7.9056 15.6367 8.2539C14.8747 8.5441 14.1762 8.8102 13.3265 8.8102C12.4084 8.8102 11.5954 8.5186 10.7441 8.2134C9.80859 7.878 8.82689 7.526 7.60869 7.526C5.32229 7.526 2.88859 8.923 1.34559 11.3114C-0.82341 14.6753 -0.45341 20.9991 3.06389 26.3862C4.32109 28.3142 6.00079 30.4804 8.19789 30.4998C9.10949 30.5088 9.71609 30.2368 10.3726 29.9423C11.1239 29.6053 11.9406 29.239 13.3546 29.2315C14.7769 29.223 15.5807 29.5937 16.3221 29.9357C16.9617 30.2307 17.5549 30.5043 18.4587 30.4945C20.6575 30.4769 22.4302 28.0761 23.6874 26.1481Z" fill="white"/>
</svg>