<svg xmlns="http://www.w3.org/2000/svg" width="34" height="34" viewBox="0 0 34 34" fill="none">
<g clip-path="url(#clip0_38_3939)">
<path d="M28.7821 6.36355C26.6146 5.38605 24.2913 4.66355 21.8617 4.25271C21.8401 4.24856 21.8177 4.25124 21.7976 4.26037C21.7776 4.26951 21.7609 4.28466 21.7498 4.30371C21.4523 4.82646 21.1208 5.50788 20.8885 6.04621C18.3117 5.66122 15.692 5.66122 13.1152 6.04621C12.8564 5.4496 12.5646 4.86787 12.2411 4.30371C12.2302 4.28442 12.2136 4.26894 12.1936 4.25932C12.1736 4.2497 12.1511 4.24641 12.1292 4.24988C9.70104 4.66071 7.37771 5.38321 5.20879 6.36213C5.19013 6.36996 5.17431 6.3833 5.16345 6.40038C0.754788 12.8816 -0.453629 19.2028 0.139954 25.4446C0.141606 25.4599 0.146351 25.4747 0.153901 25.4881C0.161451 25.5015 0.171648 25.5132 0.183871 25.5225C2.75709 27.396 5.62718 28.8231 8.67395 29.7442C8.69519 29.7508 8.71791 29.7507 8.73914 29.7442C8.76037 29.7376 8.77912 29.7248 8.79295 29.7074C9.44858 28.8306 10.0296 27.9003 10.5298 26.9265C10.5367 26.9131 10.5407 26.8985 10.5415 26.8835C10.5423 26.8685 10.5399 26.8535 10.5344 26.8395C10.5289 26.8256 10.5204 26.813 10.5096 26.8025C10.4988 26.7921 10.4859 26.7841 10.4717 26.7791C9.55654 26.4345 8.66982 26.0186 7.81971 25.5353C7.80443 25.5266 7.79156 25.5142 7.78224 25.4993C7.77293 25.4844 7.76747 25.4674 7.76634 25.4498C7.76522 25.4323 7.76847 25.4147 7.77581 25.3987C7.78314 25.3827 7.79433 25.3688 7.80837 25.3582C7.98687 25.2265 8.16537 25.089 8.33537 24.9516C8.35067 24.9393 8.36911 24.9314 8.38862 24.9289C8.40812 24.9264 8.42795 24.9294 8.44587 24.9375C14.0091 27.4365 20.0342 27.4365 25.5323 24.9375C25.5503 24.9289 25.5703 24.9255 25.5901 24.9278C25.6099 24.93 25.6286 24.9378 25.6442 24.9502C25.8142 25.089 25.9913 25.2265 26.1712 25.3582C26.1854 25.3686 26.1968 25.3823 26.2043 25.3982C26.2119 25.414 26.2154 25.4315 26.2146 25.449C26.2137 25.4666 26.2086 25.4836 26.1995 25.4987C26.1904 25.5138 26.1778 25.5263 26.1627 25.5353C25.3155 26.0226 24.4344 26.4349 23.5093 26.7777C23.4951 26.7829 23.4821 26.791 23.4713 26.8016C23.4605 26.8121 23.4521 26.8249 23.4466 26.8389C23.4411 26.853 23.4386 26.8681 23.4394 26.8832C23.4402 26.8983 23.4443 26.913 23.4512 26.9265C23.9612 27.8997 24.5449 28.8262 25.1866 29.706C25.2 29.724 25.2186 29.7375 25.2398 29.7446C25.2611 29.7517 25.2841 29.7521 25.3056 29.7456C28.3576 28.8271 31.2324 27.3993 33.8085 25.5225C33.821 25.5138 33.8316 25.5024 33.8394 25.4892C33.8472 25.476 33.8521 25.4613 33.8538 25.446C34.5621 18.2295 32.6666 11.9594 28.826 6.40321C28.8166 6.38516 28.801 6.37108 28.7821 6.36355ZM11.3614 21.6437C9.68687 21.6437 8.30562 20.1293 8.30562 18.272C8.30562 16.4134 9.65996 14.9004 11.3614 14.9004C13.0755 14.9004 14.444 16.4261 14.4171 18.272C14.4171 20.1307 13.0628 21.6437 11.3614 21.6437ZM22.6593 21.6437C20.9834 21.6437 19.6035 20.1293 19.6035 18.272C19.6035 16.4134 20.9565 14.9004 22.6593 14.9004C24.3735 14.9004 25.742 16.4261 25.715 18.272C25.715 20.1307 24.3749 21.6437 22.6593 21.6437Z" fill="white"/>
</g>
<defs>
<clipPath id="clip0_38_3939">
<rect width="34" height="34" fill="white"/>
</clipPath>
</defs>
</svg>