<svg xmlns="http://www.w3.org/2000/svg" xmlns:xlink="http://www.w3.org/1999/xlink" viewBox="0 0 40 40" width="40" height="40" preserveAspectRatio="xMidYMid meet" style="width: 100%; height: 100%; transform: translate3d(0px, 0px, 0px); content-visibility: visible;"><defs><clipPath id="__lottie_element_2"><rect width="40" height="40" x="0" y="0"></rect></clipPath></defs><g clip-path="url(#__lottie_element_2)"><g style="display: none;"><g><path></path></g></g><g transform="matrix(0.039551202207803726,0,0,0.039551202207803726,20,20)" opacity="0.0002247191011250038" style="display: none;"><g opacity="1" transform="matrix(1,0,0,1,0,0)"><path fill="rgb(161,172,182)" fill-opacity="1" d=" M0,-500 C275.95001220703125,-500 500,-275.95001220703125 500,0 C500,275.95001220703125 275.95001220703125,500 0,500 C-275.95001220703125,500 -500,275.95001220703125 -500,0 C-500,-275.95001220703125 -275.95001220703125,-500 0,-500z"></path></g></g><g transform="matrix(0.028661200776696205,0,0,0.028661200776696205,20,20)" opacity="0.27831460674157443" style="display: block;"><g opacity="1" transform="matrix(1,0,0,1,0,0)"><path fill="rgb(161,172,182)" fill-opacity="1" d=" M0,-500 C275.95001220703125,-500 500,-275.95001220703125 500,0 C500,275.95001220703125 275.95001220703125,500 0,500 C-275.95001220703125,500 -500,275.95001220703125 -500,0 C-500,-275.95001220703125 -275.95001220703125,-500 0,-500z"></path></g></g><g transform="matrix(0.015461200848221779,0,0,0.015461200848221779,20,20)" opacity="0.6153932584269677" style="display: block;"><g opacity="1" transform="matrix(1,0,0,1,0,0)"><path fill="rgb(161,172,182)" fill-opacity="1" d=" M0,-500 C275.95001220703125,-500 500,-275.95001220703125 500,0 C500,275.95001220703125 275.95001220703125,500 0,500 C-275.95001220703125,500 -500,275.95001220703125 -500,0 C-500,-275.95001220703125 -275.95001220703125,-500 0,-500z"></path></g></g><g transform="matrix(0.002261199988424778,0,0,0.002261199988424778,20,20)" opacity="0.9524719101123609" style="display: block;"><g opacity="1" transform="matrix(1,0,0,1,0,0)"><path fill="rgb(161,172,182)" fill-opacity="1" d=" M0,-500 C275.95001220703125,-500 500,-275.95001220703125 500,0 C500,275.95001220703125 275.95001220703125,500 0,500 C-275.95001220703125,500 -500,275.95001220703125 -500,0 C-500,-275.95001220703125 -275.95001220703125,-500 0,-500z"></path></g></g><g transform="matrix(0.02679208107292652,0,0,0.02679208107292652,20,20)" opacity="0.32604494382022564" style="display: none;"><g opacity="1" transform="matrix(1,0,0,1,0,0)"><path fill="rgb(161,172,182)" fill-opacity="1" d=" M0,-500 C275.95001220703125,-500 500,-275.95001220703125 500,0 C500,275.95001220703125 275.95001220703125,500 0,500 C-275.95001220703125,500 -500,275.95001220703125 -500,0 C-500,-275.95001220703125 -275.95001220703125,-500 0,-500z"></path></g></g><g transform="matrix(0.01359208021312952,0,0,0.01359208021312952,20,20)" opacity="0.663123595505619" style="display: none;"><g opacity="1" transform="matrix(1,0,0,1,0,0)"><path fill="rgb(161,172,182)" fill-opacity="1" d=" M0,-500 C275.95001220703125,-500 500,-275.95001220703125 500,0 C500,275.95001220703125 275.95001220703125,500 0,500 C-275.95001220703125,500 -500,275.95001220703125 -500,0 C-500,-275.95001220703125 -275.95001220703125,-500 0,-500z"></path></g></g></g></svg>