<svg width="842" height="292" viewBox="0 0 842 292" fill="none" xmlns="http://www.w3.org/2000/svg">
<path d="M48.125 115.562C73.25 115.562 88.125 100.688 88.125 76.125V65.75H49.125V79.8125H69.75L69.6875 81.125C69.1875 92.25 60.75 99.5625 48.4375 99.5625C33.4375 99.5625 23.9375 88 23.9375 68.4375V68.375C23.9375 49.25 32.875 38.25 47.75 38.25C57.9375 38.25 65.125 43.3125 68.125 52.0625L68.375 52.6875H87.3125L87.125 51.8125C84.125 34.875 69.375 22.25 47.6875 22.25C21.25 22.25 4.6875 39.6875 4.6875 68.5625V68.625C4.6875 98 21.1875 115.562 48.125 115.562ZM129.812 115.375C150.062 115.375 163 102.375 163 80.5V80.375C163 58.6875 149.812 45.625 129.75 45.625C109.75 45.625 96.625 58.8125 96.625 80.375V80.5C96.625 102.312 109.438 115.375 129.812 115.375ZM129.875 101.062C120.875 101.062 115.188 93.625 115.188 80.5V80.375C115.188 67.4375 120.938 59.9375 129.75 59.9375C138.625 59.9375 144.438 67.4375 144.438 80.375V80.5C144.438 93.5625 138.75 101.062 129.875 101.062ZM7.5 251H24.3125V190H24.8125L49.1875 251H61.0625L85.375 190H85.9375V251H102.75V160.812H80.9375L55.3125 225.625H54.9375L29.3125 160.812H7.5V251ZM139 252.375C149.125 252.375 156 247.625 159.438 239.938H159.812V251H178.062V184H159.812V222.5C159.812 231.25 154.625 237.25 146.438 237.25C138.25 237.25 134.125 232.188 134.125 223.438V184H115.875V227.25C115.875 242.938 124.25 252.375 139 252.375ZM190.375 251H208.625V160.812H190.375V251ZM247.562 252.375C251.375 252.375 254.312 252 256.375 251.688V238.312C255.25 238.438 254.062 238.625 252.438 238.625C246.938 238.625 244.125 236.5 244.125 230.25V197.75H256.375V184H244.125V167.625H225.688V184H216.375V197.75H225.688V232.25C225.688 246.625 232.688 252.375 247.562 252.375ZM275.938 175.375C281.438 175.375 285.688 171.062 285.688 165.875C285.688 160.688 281.438 156.375 275.938 156.375C270.438 156.375 266.188 160.688 266.188 165.875C266.188 171.062 270.438 175.375 275.938 175.375ZM266.812 251H285.062V184H266.812V251ZM505.562 252.375C523.438 252.375 535 241.25 535.875 226.625V226.25H518.875L518.812 226.812C517.562 233.562 513 238.062 505.688 238.062C496.688 238.062 491.062 230.625 491.062 217.5V217.438C491.062 204.625 496.688 196.938 505.625 196.938C513.188 196.938 517.625 201.812 518.75 208.188L518.875 208.75H535.812V208.312C535.125 193.812 523.562 182.625 505.375 182.625C485.312 182.625 472.5 195.938 472.5 217.375V217.438C472.5 239.062 485.125 252.375 505.562 252.375ZM545.125 251H563.375V212.625C563.375 203.875 568.562 197.75 576.625 197.75C584.938 197.75 589.562 203.312 589.562 212.688V251H607.812V208.938C607.812 192.75 598.812 182.625 584.312 182.625C574.25 182.625 567.188 187.25 563.75 195.562H563.375V160.812H545.125V251ZM639.5 252.062C648.312 252.062 655.438 247.875 659.25 241H659.625V251H677.875V205.062C677.875 191.562 666.688 182.625 649.375 182.625C631.688 182.625 621.062 191.5 620.062 203.875L620 204.625H636.688L636.812 204.062C637.688 199.75 641.812 196.562 648.625 196.562C655.75 196.562 659.625 200.25 659.625 206.188V210.312L643.062 211.312C626.438 212.375 617 219.5 617 231.688V231.812C617 243.625 626.062 252.062 639.5 252.062ZM635.062 230.875V230.75C635.062 226 638.75 223 645.812 222.562L659.625 221.688V226.5C659.625 233.5 653.625 238.75 645.438 238.75C639.125 238.75 635.062 235.812 635.062 230.875ZM699.188 175.375C704.688 175.375 708.938 171.062 708.938 165.875C708.938 160.688 704.688 156.375 699.188 156.375C693.688 156.375 689.438 160.688 689.438 165.875C689.438 171.062 693.688 175.375 699.188 175.375ZM690.062 251H708.312V184H690.062V251ZM720.562 251H738.812V212.5C738.812 203.75 744 197.75 752.188 197.75C760.375 197.75 764.5 202.75 764.5 211.5V251H782.75V207.75C782.75 192.062 774.375 182.625 759.625 182.625C749.5 182.625 742.625 187.312 739.188 195H738.812V184H720.562V251Z" fill="url(#paint0_linear_33_3643)"/>
<path d="M420.045 181.361C408.784 180.783 398.774 185.596 392.229 193.536C392.229 193.536 384.866 203.065 384.866 203.017C384.866 203.017 375.577 215.193 375.626 215.193L367.637 225.684L367.011 226.502C362.439 232.614 354.354 236.031 345.836 233.528C342.647 232.565 339.77 230.776 337.497 228.342C335.223 225.908 333.634 222.915 332.891 219.668C332.227 216.856 332.208 213.93 332.834 211.109C333.46 208.289 334.715 205.646 336.506 203.378C338.297 201.111 340.577 199.277 343.176 198.015C345.775 196.752 348.625 196.093 351.515 196.087C357.338 196.087 361.669 198.541 364.653 201.14C367.829 203.931 372.69 203.498 375.289 200.129C377.551 197.194 377.262 192.959 374.567 190.456C359.359 176.5 330.581 179.676 321.389 199.071C309.454 224.24 327.645 249.073 351.515 249.073C362.006 249.073 371.391 244.404 377.599 236.897L379.668 234.202C379.668 234.202 384.914 227.32 384.914 227.368C384.914 227.368 394.202 215.193 394.154 215.193L402.287 204.557L402.864 203.835C407.051 198.156 414.27 194.932 422.211 196.472C429.237 197.868 435.06 203.354 436.792 210.332C439.969 222.989 430.44 234.394 418.264 234.394C412.537 234.394 408.206 231.94 405.222 229.293C404.469 228.632 403.588 228.134 402.633 227.827C401.679 227.521 400.672 227.415 399.675 227.514C398.678 227.613 397.711 227.916 396.836 228.405C395.961 228.893 395.195 229.556 394.587 230.352C392.229 233.432 392.662 237.715 395.549 240.314C400.025 244.308 407.677 249.169 418.264 249.169C438.477 249.169 454.599 231.411 451.856 210.669C449.738 194.691 436.071 182.179 420.045 181.361Z" fill="url(#paint1_linear_33_3643)"/>
<defs>
<linearGradient id="paint0_linear_33_3643" x1="421" y1="-52.5" x2="421" y2="437" gradientUnits="userSpaceOnUse">
<stop stop-color="#E4A2FB"/>
<stop offset="1" stop-color="#AC54F8"/>
</linearGradient>
<linearGradient id="paint1_linear_33_3643" x1="384.893" y1="181.314" x2="384.893" y2="249.169" gradientUnits="userSpaceOnUse">
<stop stop-color="#AC54F8"/>
<stop offset="1" stop-color="#E4A2FB"/>
</linearGradient>
</defs>
</svg>
