<svg xmlns="http://www.w3.org/2000/svg" width="24" height="24" viewBox="0 0 24 24" fill="none">
<g clip-path="url(#clip0_37_3713)">
<path d="M24 12C24 15.1826 22.7357 18.2348 20.4853 20.4853C18.2348 22.7357 15.1826 24 12 24C8.8174 24 5.76516 22.7357 3.51472 20.4853C1.26428 18.2348 0 15.1826 0 12C0 8.8174 1.26428 5.76516 3.51472 3.51472C5.76516 1.26428 8.8174 0 12 0C15.1826 0 18.2348 1.26428 20.4853 3.51472C22.7357 5.76516 24 8.8174 24 12ZM13.9245 6.003H11.9565L9.108 8.0775V9.984L11.859 8.007H11.9565V18H13.9245V6.003Z" fill="url(#paint0_linear_37_3713)"/>
</g>
<defs>
<linearGradient id="paint0_linear_37_3713" x1="12" y1="0" x2="12" y2="24" gradientUnits="userSpaceOnUse">
<stop stop-color="#FFB6FF"/>
<stop offset="1" stop-color="#9644FF"/>
</linearGradient>
<clipPath id="clip0_37_3713">
<rect width="24" height="24" fill="white"/>
</clipPath>
</defs>
</svg>