<svg xmlns="http://www.w3.org/2000/svg" width="374" height="114" viewBox="0 0 374 114" fill="none">
<g clip-path="url(#clip0_2250_69919)">
<path d="M321.741 111.22C308.805 116.228 303.544 111.483 303.544 108.489C308.127 108.102 319.077 107.474 321.741 111.22ZM338.16 107.125C334.948 109.485 331.001 110.628 327.024 110.349C323.047 110.07 319.298 108.387 316.447 105.601C320.861 104.375 332.915 102.922 338.16 107.125ZM316.275 97.3899C316.766 103.621 310.383 107.125 303.492 107.63C304.749 101.362 311.183 98.5639 316.275 97.3899ZM328.636 91.6459C329.365 94.3095 328.363 101.54 318.449 104.409C318.875 99.5263 321.471 93.1693 328.636 91.6459ZM348.295 98.8949C345.753 101.431 342.402 102.995 338.825 103.314C335.249 103.634 331.673 102.69 328.722 100.645C332.695 98.5976 342.235 95.8328 348.295 98.8949ZM337.82 84.4705C339.178 87.0942 339.466 94.57 330.69 99.0696C330.181 94.2574 332.115 86.0275 337.82 84.4705ZM359.534 87.3762C358.707 89.0017 357.559 90.4422 356.159 91.6104C354.759 92.7785 353.136 93.6499 351.388 94.1716C349.657 94.6796 347.839 94.8221 346.05 94.5899C344.261 94.3578 342.54 93.756 340.996 92.8229C346.529 87.6214 355.358 85.626 359.534 87.3762ZM346.413 73.4391C350.349 80.305 346.189 88.1455 341.861 91.367C339.935 84.9854 341.701 78.0307 346.41 73.4391H346.413ZM366.836 73.1418C367.311 83.8053 356.174 83.226 350.944 83.2965C352.59 81.0559 361.741 72.9334 366.836 73.1418ZM353.102 63.1802C355.171 65.4576 358.277 74.2115 351.401 81.3533C349.246 76.1885 348.77 68.2591 353.099 63.1802H353.102ZM372.676 58.4538C373.031 67.0668 365.781 71.4254 358.789 71.3579C360.892 67.2078 366.514 59.2078 372.676 58.4538ZM358.007 52.5197C362.642 55.2477 362.115 64.0568 359.38 68.6422C356.309 64.3725 354.016 59.0668 358.007 52.5197ZM372.979 44.4493C375.272 52.2929 368.534 57.5986 364.491 58.0523C365.527 54.3067 366.885 47.6707 372.982 44.4493H372.979ZM358.856 41.8409C363.966 44.4003 366.388 50.5213 364.475 56.0385C360.91 53.1665 356.615 47.0914 358.856 41.8409ZM373.218 32.3513C376.376 41.893 369.126 45.0102 366.428 45.7765C366.75 41.7183 369.331 33.6295 373.218 32.3513ZM359.058 29.8471C361.131 30.4448 367.038 35.2938 365.968 43.9773C362.081 41.7888 357.36 37.6202 359.058 29.8471ZM371.079 17.8932C374.61 29.6203 368.718 34.4356 366.784 35.395C366.477 31.6862 366.103 23.0211 371.079 17.8932ZM358.007 18.1874C361.707 19.2204 366.376 26.0127 366.155 32.5444C362.489 30.8647 357.004 23.8793 358.007 18.1874ZM359.111 -0.000946045C367.7 8.87562 368.905 15.8763 366.394 24.5077C362.504 21.0073 359.399 10.5032 359.111 -0.000946045ZM52.2589 111.22C65.1956 116.228 70.4561 111.483 70.4561 108.489C65.8731 108.102 54.9229 107.474 52.2589 111.22ZM35.8366 107.125C39.0492 109.485 42.996 110.628 46.9731 110.349C50.9501 110.07 54.6987 108.387 57.5501 105.601C53.1356 104.375 41.0818 102.922 35.8366 107.125ZM57.7217 97.3899C57.2312 103.621 63.6138 107.125 70.5052 107.63C69.2483 101.362 62.8136 98.5639 57.7217 97.3899ZM45.3644 91.6459C44.6348 94.3095 45.6372 101.54 55.5513 104.409C55.1252 99.5263 52.5286 93.1693 45.3644 91.6459ZM25.7049 98.8949C28.247 101.431 31.5981 102.995 35.1747 103.314C38.7513 103.634 42.3268 102.69 45.2786 100.645C41.3056 98.5976 31.7655 95.8328 25.7049 98.8949ZM36.1799 84.4705C34.8219 87.0942 34.5337 94.57 43.3105 99.0696C43.8193 94.2574 41.885 86.0275 36.1799 84.4705ZM14.4665 87.3762C15.2927 89.0017 16.4408 90.4422 17.841 91.6104C19.2412 92.7785 20.8643 93.6499 22.6117 94.1716C24.3428 94.6796 26.1606 94.8221 27.9497 94.5899C29.7388 94.3578 31.46 93.756 33.004 92.8229C27.4706 87.6214 18.6418 85.626 14.4665 87.3762ZM27.5871 73.4391C23.6509 80.305 27.8109 88.1455 32.1395 91.367C34.0647 84.9854 32.2989 78.0307 27.5902 73.4391H27.5871ZM7.16428 73.1418C6.68912 83.8053 17.8263 83.226 23.0562 83.2965C21.41 81.0559 12.2593 72.9334 7.16428 73.1418ZM20.8981 63.1802C18.8288 65.4576 15.7234 74.2115 22.5994 81.3533C24.7545 76.1885 25.2297 68.2591 20.9011 63.1802H20.8981ZM1.32743 58.4538C0.97182 67.0668 8.2219 71.4254 15.2145 71.3579C13.1115 67.2078 7.48923 59.2078 1.32743 58.4538ZM15.9962 52.5197C11.3611 55.2477 11.8883 64.0568 14.6228 68.6422C17.6945 64.3725 19.9876 59.0668 15.9962 52.5197ZM1.02087 44.4493C-1.27218 52.2929 5.46595 57.5986 9.50944 58.0523C8.47328 54.3067 7.11523 47.6707 1.0178 44.4493H1.02087ZM15.144 41.8409C10.0337 44.4003 7.61185 50.5213 9.52477 56.0385C13.09 53.1665 17.3849 47.0914 15.144 41.8409ZM0.781755 32.3513C-2.37579 41.893 4.8743 45.0102 7.572 45.7765C7.25012 41.7183 4.6689 33.6295 0.781755 32.3513ZM14.9416 29.8471C12.8693 30.4448 6.96195 35.2938 8.03184 43.9773C11.919 41.7888 16.64 37.6202 14.9416 29.8471ZM2.92153 17.8932C-0.610015 29.6203 5.28202 34.4356 7.21639 35.395C7.52295 31.6862 7.89695 23.0211 2.92153 17.8932ZM15.9931 18.1874C12.293 19.2204 7.62412 26.0127 7.84484 32.5444C11.5113 30.8647 16.9956 23.8793 15.9931 18.1874ZM14.8895 -0.000946045C6.29979 8.87562 5.09502 15.8763 7.60572 24.5077C11.4959 21.0073 14.6014 10.5032 14.8895 -0.000946045ZM171.163 107.278C171.66 107.278 172.046 106.947 172.046 106.45V69.4851C172.046 68.9886 171.66 68.6576 171.163 68.6576H157.092C156.596 68.6576 156.265 68.9886 156.265 69.4851V74.9472C156.265 75.4437 156.596 75.8299 157.092 75.8299H163.604V106.45C163.604 106.947 163.935 107.278 164.431 107.278H171.163ZM187.828 107.94C193.291 107.94 198.091 105.071 198.146 99.4987C198.257 95.416 195.553 93.0436 192.187 91.7195L188.104 90.1195C186.89 89.6229 185.952 88.9057 185.952 87.9126C185.952 87.085 186.448 86.1471 188.104 86.1471C189.594 86.1471 191.083 86.9195 192.849 88.2988C193.346 88.6298 193.732 88.685 194.118 88.2988L196.932 84.9885C197.153 84.6574 197.319 84.2161 196.988 83.8299C195.835 82.4868 194.404 81.411 192.794 80.6774C191.183 79.9437 189.432 79.5698 187.662 79.5816C182.475 79.5816 177.95 82.6161 177.95 87.9126C177.95 91.6643 180.268 93.9815 183.8 95.3608L187.331 96.7953C189.152 97.5125 189.759 98.1194 189.759 99.1677C189.759 100.381 188.766 100.933 187.276 100.933C185.345 100.933 183.524 100.106 181.151 98.3953C180.709 98.1194 180.213 97.9539 179.771 98.6711L177.564 101.761C177.178 102.312 177.123 102.975 177.399 103.361C179.661 106.064 183.248 107.94 187.828 107.94ZM213.376 107.94C215.252 107.94 218.232 107.609 218.232 106.23V101.65C218.232 101.099 217.791 100.823 217.239 100.878C216.521 100.933 216.025 100.933 215.528 100.933C214.149 100.933 213.211 100.161 213.211 98.6711V86.754H217.349C217.846 86.754 218.177 86.423 218.177 85.9264V81.0713C218.177 80.5747 217.846 80.2437 217.349 80.2437H213.211V73.8989C213.211 73.4024 212.824 73.0713 212.328 73.0713H205.541C205.044 73.0713 204.658 73.4024 204.658 73.8989V80.2437H201.292C200.795 80.2437 200.464 80.5747 200.464 81.0713V85.9264C200.464 86.423 200.795 86.754 201.292 86.754H204.658V99.6091C204.658 105.899 208.907 107.94 213.376 107.94ZM63.5187 45.9757C63.7946 45.9757 63.9786 45.7918 63.9786 45.516V38.5888H66.1858C71.3666 38.5888 73.8191 35.7383 73.8191 31.5697C73.8191 27.4012 71.3666 24.5199 66.1858 24.5199H59.5948C59.3189 24.5199 59.135 24.7039 59.135 24.9797V45.516C59.135 45.7918 59.3189 45.9757 59.5948 45.9757H63.5187ZM63.9786 28.8111H66.0631C67.6879 28.8111 69.19 29.3322 69.19 31.5697C69.19 33.7766 67.6879 34.2977 66.0631 34.2977H63.9786V28.8111ZM80.8392 45.9757C81.1151 45.9757 81.3297 45.7918 81.3297 45.516V38.2823C81.3297 36.0448 82.4946 34.8187 84.4259 34.8187C84.8858 34.8187 85.223 34.88 85.5295 34.972C85.9587 35.0639 86.1733 34.972 86.1733 34.5735V31.6004C86.1733 31.3245 86.112 31.1406 85.8974 30.9873C85.6522 30.8034 85.2536 30.5889 84.5179 30.5889C82.7705 30.5889 81.8202 31.8149 81.3297 33.4394L81.1764 31.4471C81.1764 31.0793 80.9925 30.9567 80.7166 30.9567H77.0992C76.8233 30.9567 76.6394 31.1406 76.6394 31.4165V45.516C76.6394 45.7918 76.8233 45.9757 77.0992 45.9757H80.8392ZM95.462 46.3435C99.9991 46.3435 103.371 42.9106 103.371 38.4662C103.371 34.0218 99.9991 30.5889 95.462 30.5889C90.925 30.5889 87.5835 34.0218 87.5835 38.4662C87.5835 42.9106 90.925 46.3435 95.462 46.3435ZM95.462 42.0524C93.5613 42.0524 92.0899 40.6731 92.0899 38.4662C92.0899 36.2593 93.5613 34.88 95.462 34.88C97.3627 34.88 98.8341 36.2593 98.8341 38.4662C98.8341 40.6731 97.3627 42.0524 95.462 42.0524ZM112.292 46.3435C114.438 46.3435 115.971 45.4853 116.982 44.0447L117.044 45.516C117.044 45.7918 117.258 45.9757 117.534 45.9757H120.906C121.182 45.9757 121.427 45.7918 121.427 45.516V24.5199C121.427 24.2441 121.213 24.0602 120.937 24.0602H117.166C116.89 24.0602 116.706 24.2441 116.706 24.5199V32.4586C115.695 31.2632 114.254 30.5889 112.292 30.5889C108.123 30.5889 105.241 34.0218 105.241 38.4662C105.241 42.9413 108.123 46.3435 112.292 46.3435ZM113.304 42.083C111.311 42.083 109.809 40.6731 109.809 38.4662C109.809 36.29 111.311 34.8494 113.304 34.8494C115.358 34.8494 116.768 36.29 116.768 38.4356C116.768 40.6424 115.358 42.083 113.304 42.083ZM130.226 46.3435C132.402 46.3435 133.782 45.2708 134.64 43.7382L134.763 45.4853C134.763 45.8531 134.977 45.9757 135.253 45.9757H138.84C139.116 45.9757 139.33 45.7918 139.33 45.516V31.4165C139.33 31.1406 139.116 30.9567 138.84 30.9567H135.131C134.855 30.9567 134.64 31.1406 134.64 31.4165V39.0179C134.64 41.0103 133.628 42.0524 132.034 42.0524C130.379 42.0524 129.521 41.0103 129.521 39.0179V31.4165C129.521 31.1406 129.306 30.9567 129.03 30.9567H125.29C125.014 30.9567 124.83 31.1406 124.83 31.4165V40.1214C124.83 44.0447 127.099 46.3435 130.226 46.3435ZM149.968 46.3435C152.39 46.3435 154.413 45.2708 155.701 43.5849C155.884 43.3704 155.854 43.1252 155.67 42.9413L153.555 40.9183C153.309 40.6731 152.972 40.6731 152.758 40.8876C151.93 41.6539 151.133 42.0524 150.121 42.0524C147.853 42.0524 146.504 40.3359 146.504 38.3743C146.504 36.4432 147.853 34.88 150.06 34.88C151.102 34.88 151.899 35.2478 152.696 36.0448C152.942 36.2593 153.279 36.2593 153.524 36.0141L155.639 33.9911C155.823 33.8072 155.854 33.5314 155.67 33.3475C154.382 31.6617 152.359 30.5889 149.845 30.5889C145.308 30.5889 141.997 33.9605 141.997 38.3743C141.997 42.88 145.37 46.3435 149.968 46.3435ZM164.591 46.3435C165.633 46.3435 167.288 46.1596 167.288 45.3934V42.8493C167.288 42.5428 167.043 42.3896 166.737 42.4202C166.338 42.4509 166.062 42.4509 165.786 42.4509C165.02 42.4509 164.499 42.0217 164.499 41.1942V34.5735H166.798C167.074 34.5735 167.258 34.3896 167.258 34.1138V31.4165C167.258 31.1406 167.074 30.9567 166.798 30.9567H164.499V27.4318C164.499 27.1559 164.284 26.972 164.008 26.972H160.238C159.962 26.972 159.747 27.1559 159.747 27.4318V30.9567H157.877C157.601 30.9567 157.417 31.1406 157.417 31.4165V34.1138C157.417 34.3896 157.601 34.5735 157.877 34.5735H159.747V41.7152C159.747 45.2095 162.108 46.3435 164.591 46.3435ZM182.831 46.3435C187.368 46.3435 190.74 42.9106 190.74 38.4662C190.74 34.0218 187.368 30.5889 182.831 30.5889C178.294 30.5889 174.952 34.0218 174.952 38.4662C174.952 42.9106 178.294 46.3435 182.831 46.3435ZM182.831 42.0524C180.93 42.0524 179.459 40.6731 179.459 38.4662C179.459 36.2593 180.93 34.88 182.831 34.88C184.732 34.88 186.203 36.2593 186.203 38.4662C186.203 40.6731 184.732 42.0524 182.831 42.0524ZM198.619 45.9757C198.894 45.9757 199.109 45.7918 199.109 45.516V34.5735H202.113C202.389 34.5735 202.573 34.3896 202.573 34.1138V31.4165C202.573 31.1406 202.389 30.9567 202.113 30.9567H199.109V29.4548C199.109 28.4433 199.446 27.7077 200.887 27.7077C201.224 27.7077 201.653 27.7996 202.175 27.8916C202.389 27.9222 202.573 27.8916 202.573 27.677V24.5813C202.573 24.3973 202.481 24.1828 202.297 24.0908C201.378 23.6311 200.703 23.5698 199.783 23.5698C196.442 23.5698 194.388 25.1636 194.388 28.8418V30.9567H192.61C192.334 30.9567 192.15 31.1406 192.15 31.4165V34.1138C192.15 34.3896 192.334 34.5735 192.61 34.5735H194.388V45.516C194.388 45.7918 194.572 45.9757 194.848 45.9757H198.619ZM217.257 46.3435C218.3 46.3435 219.955 46.1596 219.955 45.3934V42.8493C219.955 42.5428 219.71 42.3896 219.403 42.4202C219.005 42.4509 218.729 42.4509 218.453 42.4509C217.686 42.4509 217.165 42.0217 217.165 41.1942V34.5735H219.464C219.74 34.5735 219.924 34.3896 219.924 34.1138V31.4165C219.924 31.1406 219.74 30.9567 219.464 30.9567H217.165V27.4318C217.165 27.1559 216.951 26.972 216.675 26.972H212.904C212.628 26.972 212.414 27.1559 212.414 27.4318V30.9567H210.544C210.268 30.9567 210.084 31.1406 210.084 31.4165V34.1138C210.084 34.3896 210.268 34.5735 210.544 34.5735H212.414V41.7152C212.414 45.2095 214.774 46.3435 217.257 46.3435ZM231.512 30.5889C229.366 30.5889 227.987 31.6617 227.128 33.1942V24.5199C227.128 24.2441 226.914 24.0602 226.638 24.0602H222.898C222.622 24.0602 222.438 24.2441 222.438 24.5199V45.516C222.438 45.7918 222.622 45.9757 222.898 45.9757H226.638C226.914 45.9757 227.128 45.7918 227.128 45.516V37.9145C227.128 35.9222 228.109 34.88 229.734 34.88C231.39 34.88 232.248 35.9222 232.248 37.9145V45.516C232.248 45.7918 232.462 45.9757 232.738 45.9757H236.448C236.724 45.9757 236.938 45.7918 236.938 45.516V36.811C236.938 32.8877 234.639 30.5889 231.512 30.5889ZM247.882 46.3435C249.998 46.3435 251.929 45.7305 253.216 44.4432C253.492 44.198 253.492 43.9528 253.37 43.7689L252.113 41.9911C251.929 41.7765 251.806 41.7152 251.561 41.8378C250.304 42.5428 249.262 42.6654 248.25 42.6654C246.104 42.6654 244.694 41.8685 244.173 40.244H252.818C254.197 40.244 254.596 39.3244 254.596 37.7919C254.596 33.9298 251.929 30.5889 247.331 30.5889C242.702 30.5889 239.605 33.9911 239.605 38.4049C239.605 42.9719 242.947 46.3435 247.882 46.3435ZM244.112 36.995C244.48 35.2172 245.798 34.4509 247.361 34.4509C248.925 34.4509 250.12 35.1865 250.427 36.995H244.112ZM269.464 46.3435C271.61 46.3435 273.143 45.4853 274.154 44.0447L274.216 45.516C274.216 45.7918 274.43 45.9757 274.706 45.9757H278.078C278.354 45.9757 278.599 45.7918 278.599 45.516V24.5199C278.599 24.2441 278.385 24.0602 278.109 24.0602H274.338C274.062 24.0602 273.878 24.2441 273.878 24.5199V32.4586C272.867 31.2632 271.426 30.5889 269.464 30.5889C265.295 30.5889 262.413 34.0218 262.413 38.4662C262.413 42.9413 265.295 46.3435 269.464 46.3435ZM270.476 42.083C268.483 42.083 266.981 40.6731 266.981 38.4662C266.981 36.29 268.483 34.8494 270.476 34.8494C272.53 34.8494 273.94 36.29 273.94 38.4356C273.94 40.6424 272.53 42.083 270.476 42.083ZM288.287 46.3435C290.432 46.3435 291.965 45.4853 292.977 44.0447L293.038 45.516C293.038 45.7918 293.253 45.9757 293.529 45.9757H296.901C297.177 45.9757 297.422 45.7918 297.422 45.516V31.4165C297.422 31.1406 297.207 30.9567 296.932 30.9567H293.529C293.253 30.9567 293.038 31.1406 293.038 31.4165L292.977 32.8571C291.996 31.4471 290.494 30.5889 288.287 30.5889C284.117 30.5889 281.236 34.0218 281.236 38.4662C281.236 42.9413 284.117 46.3435 288.287 46.3435ZM289.298 42.083C287.306 42.083 285.803 40.6731 285.803 38.4662C285.803 36.29 287.306 34.8494 289.298 34.8494C291.352 34.8494 292.762 36.29 292.762 38.4356C292.762 40.6424 291.352 42.083 289.298 42.083ZM307.569 51.7994C307.814 51.7994 308.029 51.6768 308.121 51.4316L316.091 31.4778C316.214 31.1406 316.03 30.9567 315.693 30.9567H311.892C311.646 30.9567 311.401 31.0793 311.309 31.3245L307.998 40.5198L304.687 31.3245C304.595 31.0793 304.35 30.9567 304.105 30.9567H300.304C299.966 30.9567 299.783 31.1406 299.905 31.4778L305.73 46.0064L303.522 51.2477C303.369 51.6155 303.553 51.7994 303.921 51.7994H307.569Z" fill="white"/>
</g>
<defs>
<clipPath id="clip0_2250_69919">
<rect width="374" height="113.409" fill="white"/>
</clipPath>
</defs>
</svg>