<svg xmlns="http://www.w3.org/2000/svg" width="36" height="36" viewBox="0 0 36 36" fill="none">
<path d="M6 13.4998H25.5L23.1 15.2998C22.9424 15.418 22.8096 15.5661 22.7093 15.7356C22.6089 15.9051 22.5429 16.0927 22.5151 16.2877C22.4872 16.4827 22.498 16.6812 22.5469 16.8721C22.5958 17.0629 22.6818 17.2422 22.8 17.3998C22.9397 17.5861 23.1209 17.7373 23.3292 17.8414C23.5375 17.9456 23.7671 17.9998 24 17.9998C24.3246 17.9998 24.6404 17.8945 24.9 17.6998L30.9 13.1998C31.0835 13.0598 31.2321 12.8794 31.3345 12.6726C31.4368 12.4657 31.4901 12.2381 31.4901 12.0073C31.4901 11.7765 31.4368 11.5489 31.3345 11.342C31.2321 11.1352 31.0835 10.9548 30.9 10.8148L25.11 6.3148C24.7957 6.07013 24.3971 5.96034 24.0019 6.00957C23.6067 6.0588 23.2472 6.26301 23.0025 6.5773C22.7578 6.89158 22.648 7.29018 22.6973 7.68541C22.7465 8.08064 22.9507 8.44013 23.265 8.6848L25.62 10.4998H6C5.60218 10.4998 5.22064 10.6578 4.93934 10.9391C4.65804 11.2204 4.5 11.602 4.5 11.9998C4.5 12.3976 4.65804 12.7792 4.93934 13.0605C5.22064 13.3418 5.60218 13.4998 6 13.4998V13.4998ZM30 23.9998H10.5L12.9 22.1998C13.2183 21.9611 13.4287 21.6058 13.4849 21.2119C13.5412 20.8181 13.4387 20.4181 13.2 20.0998C12.9613 19.7815 12.606 19.5711 12.2121 19.5149C11.8183 19.4586 11.4183 19.5611 11.1 19.7998L5.1 24.2998C4.91654 24.4398 4.76785 24.6202 4.66551 24.827C4.56316 25.0339 4.50991 25.2615 4.50991 25.4923C4.50991 25.7231 4.56316 25.9507 4.66551 26.1575C4.76785 26.3644 4.91654 26.5448 5.1 26.6848L10.89 31.1848C11.1518 31.388 11.4736 31.4988 11.805 31.4998C12.0341 31.4992 12.26 31.4462 12.4654 31.3448C12.6708 31.2434 12.8503 31.0963 12.99 30.9148C13.2336 30.6021 13.3435 30.2057 13.2957 29.8122C13.2479 29.4187 13.0463 29.0601 12.735 28.8148L10.38 26.9998H30C30.3978 26.9998 30.7794 26.8418 31.0607 26.5605C31.342 26.2792 31.5 25.8976 31.5 25.4998C31.5 25.102 31.342 24.7204 31.0607 24.4391C30.7794 24.1578 30.3978 23.9998 30 23.9998Z" fill="url(#paint0_linear_40_4038)"/>
<defs>
<linearGradient id="paint0_linear_40_4038" x1="18" y1="5.99805" x2="18" y2="31.4998" gradientUnits="userSpaceOnUse">
<stop stop-color="#FFB6FF"/>
<stop offset="1" stop-color="#B344FF"/>
</linearGradient>
</defs>
</svg>