<svg xmlns="http://www.w3.org/2000/svg" width="34" height="34" viewBox="0 0 34 34" fill="none">
<path d="M33.494 6.99391C32.3111 7.51807 31.0403 7.87224 29.7044 8.03232C31.0828 7.20753 32.1141 5.9094 32.6057 4.38016C31.3107 5.14939 29.8933 5.69085 28.4152 5.98099C27.4213 4.91972 26.1047 4.21629 24.67 3.97991C23.2353 3.74354 21.7627 3.98745 20.4808 4.67377C19.1989 5.36009 18.1795 6.45042 17.5808 7.77549C16.9821 9.10056 16.8376 10.5862 17.1697 12.0018C14.5456 11.8701 11.9785 11.188 9.63508 9.99994C7.29163 8.81186 5.22417 7.1443 3.5669 5.10549C3.00023 6.08299 2.6744 7.21632 2.6744 8.42332C2.67377 9.5099 2.94134 10.5798 3.45339 11.5382C3.96544 12.4966 4.70613 13.3137 5.60973 13.9172C4.56179 13.8838 3.53697 13.6007 2.62057 13.0912V13.1762C2.62046 14.7002 3.14761 16.1773 4.11257 17.3568C5.07754 18.5364 6.42087 19.3457 7.91465 19.6476C6.94251 19.9107 5.92329 19.9494 4.93398 19.7609C5.35544 21.0722 6.17639 22.2189 7.28192 23.0404C8.38745 23.8619 9.7222 24.3172 11.0993 24.3424C8.76158 26.1776 5.87449 27.173 2.90248 27.1687C2.37602 27.1688 1.85001 27.1381 1.32715 27.0766C4.34391 29.0162 7.85563 30.0457 11.4421 30.0417C23.583 30.0417 30.2201 19.9862 30.2201 11.2652C30.2201 10.9818 30.213 10.6957 30.2002 10.4123C31.4912 9.4787 32.6056 8.32259 33.4911 6.99816L33.494 6.99391V6.99391Z" fill="white"/>
</svg>