<svg width="60" height="60" viewBox="0 0 60 60" fill="none" xmlns="http://www.w3.org/2000/svg">
<path d="M36.4287 27.7064L40.5226 20.6476L51.5575 38.1119L51.5628 41.4636L51.5269 18.4003C51.5007 17.8366 51.206 17.3209 50.7361 17.0167L30.8691 5.40465C30.4046 5.17247 29.815 5.17515 29.3511 5.412C29.2884 5.44374 29.2294 5.47851 29.1734 5.51643L29.104 5.56065L9.8201 16.9156L9.74535 16.9502C9.64913 16.9951 9.55175 17.0523 9.46058 17.1187C9.09487 17.385 8.85214 17.779 8.7736 18.221C8.76177 18.288 8.75304 18.3561 8.74902 18.4251L8.77934 37.2193L19.0578 21.0313C20.3519 18.8849 23.1713 18.1935 25.7887 18.231L28.8606 18.3134L10.7604 47.809L12.894 49.057L31.2109 18.3434L39.3071 18.3135L21.0374 49.8022L28.6509 54.252L29.5606 54.7835C29.9453 54.9424 30.399 54.9505 30.787 54.808L50.9331 42.9448L47.0815 45.2127L36.4287 27.7064ZM37.9905 50.566L30.3009 38.3026L34.995 30.2087L45.094 46.3831L37.9905 50.566Z" fill="#2D374B"/>
<path d="M30.3018 38.3026L37.9913 50.5661L45.0948 46.3831L34.9957 30.2087L30.3018 38.3026Z" fill="#28A0F0"/>
<path d="M51.5628 41.4637L51.5575 38.112L40.5226 20.6477L36.4287 27.7065L47.0813 45.2127L50.933 42.9448C51.3108 42.6329 51.5394 42.1755 51.5634 41.6818L51.5628 41.4637Z" fill="#28A0F0"/>
<path d="M5.32129 44.6243L10.7604 47.809L28.8605 18.3135L25.7886 18.2312C23.1712 18.1936 20.3517 18.885 19.0576 21.0315L8.7792 37.2195L5.32129 42.6181V44.6243Z" fill="white"/>
<path d="M39.3066 18.3135L31.2104 18.3433L12.8936 49.057L19.2959 52.8026L21.037 49.8022L39.3066 18.3135Z" fill="white"/>
<path d="M54.9746 18.2712C54.9069 16.5507 53.9902 14.9758 52.5542 14.0588L32.4268 2.29744C31.0063 1.57067 29.2318 1.56974 27.8088 2.29697C27.6406 2.38319 8.23539 13.8188 8.23539 13.8188C7.96682 13.9497 7.70813 14.1056 7.46481 14.2826C6.18292 15.2161 5.40155 16.6668 5.32129 18.2606V42.6182L8.7792 37.2195L8.749 18.4252C8.75302 18.3565 8.76152 18.2888 8.77357 18.2221C8.85177 17.7799 9.09473 17.3854 9.46056 17.1188C9.55185 17.0525 29.2885 5.44392 29.3512 5.41206C29.8151 5.17533 30.4047 5.17253 30.8692 5.40471L50.7362 17.0165C51.2061 17.3207 51.5008 17.8364 51.527 18.4002V41.6816C51.503 42.1753 51.3109 42.6328 50.9331 42.9446L47.0815 45.2126L45.0941 46.3829L37.9906 50.5659L30.787 54.8079C30.399 54.9503 29.9453 54.9423 29.5605 54.7834L21.0374 49.8022L19.2963 52.8027L26.9558 57.2837C27.2091 57.4301 27.4347 57.5599 27.6199 57.6655C27.9066 57.8288 28.102 57.9381 28.1711 57.9722C28.7154 58.2409 29.4988 58.3972 30.2046 58.3972C30.8517 58.3972 31.4828 58.2765 32.0799 58.0388L53.0036 45.726C54.2045 44.7805 54.911 43.3546 54.9746 41.81V18.2712Z" fill="#96BEDC"/>
</svg>
