<svg width="60" height="60" viewBox="0 0 60 60" fill="none" xmlns="http://www.w3.org/2000/svg">
<g clip-path="url(#clip0_38_3907)">
<path d="M30 60C46.5685 60 60 46.5685 60 30C60 13.4315 46.5685 0 30 0C13.4315 0 0 13.4315 0 30C0 46.5685 13.4315 60 30 60Z" fill="#E84142"/>
<path d="M40.5824 30.7796C41.6218 28.9843 43.2989 28.9843 44.3383 30.7796L50.8108 42.1418C51.8501 43.937 50.9997 45.4016 48.921 45.4016H35.8816C33.8265 45.4016 32.9761 43.937 33.9919 42.1418L40.5824 30.7796ZM28.0627 8.90554C29.1021 7.11026 30.7556 7.11026 31.795 8.90554L33.236 11.504L36.6375 17.4803C37.4643 19.1811 37.4643 21.189 36.6375 22.8898L25.2281 42.6614C24.1887 44.2677 22.4643 45.2835 20.5509 45.4016H11.0785C8.99974 45.4016 8.14934 43.9607 9.18871 42.1418L28.0627 8.90554Z" fill="white"/>
</g>
<defs>
<clipPath id="clip0_38_3907">
<rect width="60" height="60" fill="white"/>
</clipPath>
</defs>
</svg>
