<svg width="60" height="60" viewBox="0 0 60 60" fill="none" xmlns="http://www.w3.org/2000/svg">
<circle cx="30" cy="30" r="30" fill="#181A20"/>
<g clip-path="url(#clip0_38_3877)">
<path d="M21.4548 26.4892L29.9999 17.944L38.5491 26.4928L43.5211 21.5208L29.9999 8L16.4832 21.5168L21.455 26.4888L21.4548 26.4892ZM8 30L12.9722 25.0271L17.944 29.9989L12.9718 34.9711L8 30ZM21.4548 33.5114L29.9999 42.056L38.5489 33.5073L43.5235 38.4767L43.5211 38.4793L29.9999 52L16.4832 38.4832L16.4761 38.4762L21.4553 33.5108L21.4548 33.5114ZM42.0559 30.0021L47.028 25.0299L51.9998 30.0018L47.0278 34.9739L42.0559 30.0021Z" fill="#F3BA2F"/>
<path d="M35.0427 29.9974H35.0448L30 24.9521L26.2711 28.68L25.8427 29.1086L24.9592 29.9923L24.9521 29.9991L24.9592 30.0064L30 35.0479L35.0452 30.0027L35.0476 29.9998L35.0431 29.9974" fill="#F3BA2F"/>
</g>
<defs>
<clipPath id="clip0_38_3877">
<rect width="44" height="44" fill="white" transform="translate(8 8)"/>
</clipPath>
</defs>
</svg>
