<svg width="60" height="60" viewBox="0 0 60 60" fill="none" xmlns="http://www.w3.org/2000/svg">
<circle cx="30" cy="30" r="29.5" stroke="#7C7C80" stroke-opacity="0.2"/>
<path d="M26.1239 44.4399C31.959 44.4399 36.6877 39.7112 36.6877 33.8761C36.6877 28.0411 31.959 23.3123 26.1239 23.3123C20.2889 23.3123 15.5601 28.0411 15.5601 33.8761C15.5601 39.7112 20.2889 44.4399 26.1239 44.4399ZM26.1239 48.2813C18.1684 48.2813 11.7188 41.8316 11.7188 33.8761C11.7188 25.9206 18.1684 19.4709 26.1239 19.4709C34.0794 19.4709 40.5291 25.9206 40.5291 33.8761C40.5291 41.8316 34.0794 48.2813 26.1239 48.2813Z" fill="#FBCC5C"/>
<path d="M33.8759 36.6877C39.7109 36.6877 44.4397 31.959 44.4397 26.1239C44.4397 20.2889 39.7109 15.5601 33.8759 15.5601C28.0408 15.5601 23.3121 20.2889 23.3121 26.1239C23.3121 31.959 28.0408 36.6877 33.8759 36.6877ZM33.8759 40.5291C25.9204 40.5291 19.4707 34.0794 19.4707 26.1239C19.4707 18.1684 25.9204 11.7188 33.8759 11.7188C41.8314 11.7188 48.281 18.1684 48.281 26.1239C48.281 34.0794 41.8314 40.5291 33.8759 40.5291Z" fill="#35D07F"/>
<path d="M34.3033 40.5291C35.2988 39.323 36.0109 37.9102 36.39 36.3902C37.9062 36.0112 39.319 35.299 40.5288 34.3035C40.4752 36.0609 40.0962 37.7915 39.4109 39.4149C37.7913 40.0964 36.0607 40.4755 34.3033 40.5291ZM23.6096 23.6098C22.0934 23.9889 20.6806 24.701 19.4707 25.6965C19.5243 23.9391 19.9034 22.2085 20.5887 20.5889C22.2083 19.9074 23.9427 19.5284 25.6963 19.4709C24.7008 20.677 23.9886 22.0898 23.6096 23.6098Z" fill="#5EA33B"/>
</svg>
