<svg width="60" height="60" viewBox="0 0 60 60" fill="none" xmlns="http://www.w3.org/2000/svg">
<circle cx="30" cy="30" r="30" fill="#627EEA"/>
<path d="M30.0658 8.23763V8.25931C30.0875 8.36768 30.0875 8.49773 30.0875 8.62778V24.2554C30.0658 24.3421 30.0008 24.3637 29.9357 24.4071C29.4806 24.6238 29.0471 24.8189 28.5919 25.014C27.9633 25.2958 27.3131 25.5992 26.6845 25.881L24.4086 26.9214C23.7801 27.2032 23.1515 27.4849 22.5446 27.7667C21.8077 28.1135 21.049 28.4386 20.3121 28.7854C19.6835 29.0672 19.0549 29.3706 18.4047 29.6524C17.8845 29.8908 17.3643 30.1076 16.8658 30.346C16.8224 30.3677 16.7791 30.3894 16.7357 30.3894C16.7141 30.3894 16.7141 30.3894 16.6924 30.3677L17.2776 29.3923C18.4047 27.5283 19.5101 25.6859 20.6372 23.8219C21.8293 21.8278 23.0431 19.8337 24.2352 17.8396C25.3407 15.9972 26.4678 14.1549 27.5732 12.3125C28.3751 10.9687 29.1988 9.62482 30.0008 8.28098C30.0224 8.23763 30.0441 8.21596 30.0441 8.17261H30.0658C30.0441 8.19428 30.0658 8.21596 30.0658 8.23763Z" fill="white"/>
<path d="M43.3742 30.3672L43.3959 30.3889L40.2097 32.2746L30.1959 38.1918C30.1525 38.2135 30.1092 38.2352 30.0875 38.2569C30.0225 38.2569 30.0225 38.1918 30.0225 38.1702V37.9751V24.58C30.0225 24.515 30.0225 24.4283 30.0441 24.3633C30.0658 24.2766 30.1308 24.2982 30.1959 24.3199C30.4776 24.45 30.7811 24.58 31.0629 24.7101C31.9082 25.1002 32.7535 25.4904 33.5988 25.8588C34.3358 26.184 35.051 26.5308 35.788 26.8559C36.5249 27.181 37.2619 27.5278 37.9988 27.8529C38.6274 28.1347 39.2776 28.4382 39.9062 28.7199C40.5348 29.0017 41.185 29.3051 41.8136 29.5869C42.3121 29.8037 42.8106 30.0421 43.3092 30.2588C43.3092 30.3239 43.3308 30.3455 43.3742 30.3672Z" fill="#8197EE"/>
<path d="M30.0648 51.7161C30.0648 51.7377 30.0431 51.7594 30.0431 51.7811H30.0215C30.0215 51.7377 29.9781 51.7161 29.9564 51.6727C28.6126 49.787 27.2687 47.8796 25.9249 45.9939C24.5594 44.0648 23.1722 42.1141 21.8067 40.185C20.4845 38.321 19.1407 36.4353 17.8185 34.5712C17.4717 34.0727 17.1249 33.5959 16.7781 33.0973C16.7564 33.054 16.7348 33.0323 16.6914 32.9673C16.7564 32.9673 16.7998 33.0106 16.8215 33.0323C18.7072 34.1377 20.5712 35.2431 22.4569 36.3486C24.6244 37.6274 26.7702 38.9062 28.9377 40.185L30.0431 40.8353C30.0865 40.8786 30.0865 40.922 30.0865 40.9653V51.4126C30.0865 51.521 30.0865 51.6294 30.0648 51.7161Z" fill="white"/>
<path d="M16.6699 30.4116V30.39C17.3635 30.0865 18.0354 29.7614 18.729 29.4579C19.6177 29.0461 20.5064 28.656 21.395 28.2441C22.067 27.9407 22.7606 27.6156 23.4325 27.3121C24.4295 26.857 25.4049 26.4235 26.4019 25.9683C27.0739 25.6648 27.7458 25.3614 28.4394 25.0363C28.9162 24.8195 29.4148 24.6028 29.8916 24.386C29.9349 24.3643 30 24.3427 30.0216 24.2993C30.0433 24.2993 30.0433 24.321 30.0216 24.3427V38.1062C30.0216 38.1712 30 38.2363 30.0433 38.2796C30 38.3446 29.9566 38.2796 29.9349 38.2579C29.7399 38.1496 29.5448 38.0412 29.3497 37.9111C25.1665 35.4402 20.9615 32.9476 16.7783 30.4767C16.7566 30.455 16.7133 30.4333 16.6699 30.4116Z" fill="#C0CBF6"/>
<path d="M43.3306 32.9673H43.3523C43.3523 33.0106 43.309 33.054 43.2873 33.0973C39.2991 38.7111 35.3109 44.3466 31.3228 49.9604C30.9109 50.5456 30.4774 51.1308 30.0656 51.7161C30.0439 51.6944 30.0439 51.6727 30.0439 51.651V51.521V41.0087V40.8136C30.9543 40.2717 31.843 39.7515 32.7533 39.2097C36.2646 37.1289 39.776 35.0697 43.2656 32.989C43.2873 33.0106 43.309 32.989 43.3306 32.9673Z" fill="#C0CBF6"/>
<path d="M30.0433 24.3418V24.2984V24.1684V8.43243C30.0433 8.36741 30.0217 8.32406 30.065 8.25903C34.465 15.5635 38.865 22.8462 43.2434 30.1507C43.2867 30.2157 43.3517 30.3024 43.3734 30.3891C43.07 30.2807 42.7882 30.129 42.5064 29.9989C42.1596 29.8472 41.7911 29.6738 41.4443 29.5221C41.2276 29.4137 40.9892 29.327 40.7724 29.2186C40.4039 29.0452 40.0355 28.8935 39.667 28.7201C39.4502 28.6334 39.2335 28.525 39.0168 28.4167L37.5862 27.7664C37.3478 27.658 37.1094 27.5497 36.8493 27.4413L35.8089 26.9861C35.5921 26.8994 35.3754 26.7911 35.1586 26.6827L33.7281 26.0324C33.4897 25.9241 33.2512 25.8157 32.9911 25.7073L31.9507 25.2521C31.7123 25.1438 31.4956 25.0354 31.2571 24.927C30.8453 24.7319 30.4335 24.5369 30 24.3635C30.065 24.3418 30.0433 24.3418 30.0433 24.3418Z" fill="#C0CBF6"/>
</svg>
