<svg width="50" height="50" viewBox="0 0 50 50" fill="none" xmlns="http://www.w3.org/2000/svg">
<rect width="50" height="50" rx="25" fill="white"/>
<path d="M13.397 30.2802L16.5019 27.0662L12.641 21.8535L7.72709 14.8988C5.93162 17.9643 4.98664 21.4484 5.00014 25C5.00014 31.1039 7.72709 36.5597 12.0335 40.2328L18.2704 35.8169C16.1509 34.4935 14.45 32.5759 13.397 30.2802ZM19.7149 13.3998L22.9278 16.5058L28.1387 12.6436L35.0911 7.72801C32.0266 5.93194 28.5437 4.98664 24.9933 5.00014C18.8914 5.00014 13.4375 7.72801 9.76555 12.0359L14.18 18.2749C15.5029 16.1412 17.4334 14.4396 19.7149 13.3998ZM33.4981 22.9338L37.359 28.1465L42.2729 35.1012C44.0684 32.0357 45.0134 28.5516 44.9999 25C44.9999 18.8961 42.2729 13.4403 37.9665 9.76716L31.7296 14.1831C33.8626 15.5065 35.5635 17.4376 36.603 19.7198L33.4981 22.9338ZM40.2345 37.9641L35.82 31.7251C34.4971 33.8588 32.5666 35.5604 30.2851 36.6002L27.0722 33.4942L21.8613 37.3564L14.9089 42.272C17.9734 44.0681 21.4563 45.0134 25.0068 44.9999C31.0951 44.9999 36.5625 42.272 40.2345 37.9641Z" fill="black"/>
</svg>
