<svg width="50" height="50" viewBox="0 0 50 50" fill="none" xmlns="http://www.w3.org/2000/svg">
<rect width="50" height="50" rx="25" fill="white"/>
<path fill-rule="evenodd" clip-rule="evenodd" d="M10.2456 14.5698C9.16699 16.6875 9.16699 19.4584 9.16699 25C9.16699 30.5417 9.16699 33.3125 10.2456 35.4303C11.1956 37.2907 12.7097 38.8047 14.5701 39.7547C16.6878 40.8334 19.4587 40.8334 25.0003 40.8334C30.542 40.8334 33.3128 40.8334 35.4306 39.7547C37.291 38.8047 38.805 37.2907 39.755 35.4303C40.8337 33.3125 40.8337 30.5417 40.8337 25C40.8337 19.4584 40.8337 16.6875 39.755 14.5698C38.805 12.7094 37.291 11.1953 35.4306 10.2453C33.3128 9.16669 30.542 9.16669 25.0003 9.16669C19.4587 9.16669 16.6878 9.16669 14.5701 10.2453C12.7097 11.1953 11.1956 12.7094 10.2456 14.5698ZM32.9022 17.7068C33.1792 17.7068 33.4415 17.8206 33.6345 18.0136C33.8274 18.2115 33.9363 18.4787 33.9313 18.7508C33.8819 21.6998 33.7681 23.956 33.5553 25.7422C33.3475 27.5284 33.0357 28.8544 32.5657 29.9282C32.2491 30.6456 31.8582 31.2394 31.398 31.744C30.7795 32.412 30.072 32.8969 29.3001 33.3571C28.9701 33.5544 28.627 33.7493 28.2671 33.9537C27.4992 34.3898 26.6548 34.8693 25.698 35.5094C25.3517 35.7419 24.9014 35.7419 24.5551 35.5094C23.5836 34.8618 22.7281 34.3764 21.9532 33.9368C21.7808 33.839 21.6125 33.7435 21.4477 33.649C20.5423 33.1245 19.7259 32.6248 19.0134 31.9024C18.5384 31.4274 18.1277 30.8484 17.8012 30.1607C17.3558 29.2404 17.054 28.1271 16.8314 26.6873C16.5345 24.7625 16.386 22.244 16.3316 18.7508C16.3267 18.4787 16.4306 18.2115 16.6235 18.0136C16.8165 17.8206 17.0837 17.7068 17.3608 17.7068H17.7863C19.0975 17.7118 21.992 17.5831 24.4957 15.6336C24.8667 15.3466 25.3863 15.3466 25.7574 15.6336C28.2611 17.5831 31.1556 17.7118 32.4717 17.7068H32.9022ZM30.6014 29.2701C30.923 28.607 31.1902 27.6917 31.3931 26.3755C31.6355 24.8021 31.784 22.6646 31.8532 19.7553C30.3095 19.7107 27.6574 19.4139 25.129 17.7118C22.6007 19.4089 19.9486 19.7058 18.4097 19.7553C18.4642 22.1599 18.573 24.0303 18.7462 25.4998C18.9441 27.1722 19.2262 28.3053 19.5774 29.1019C19.81 29.6313 20.0673 30.0123 20.3741 30.3487C20.7847 30.799 21.3042 31.1701 22.0118 31.5956C22.3053 31.7717 22.6289 31.9549 22.9812 32.1543C23.6087 32.5094 24.3272 32.9161 25.129 33.4264C25.916 32.9244 26.6242 32.5219 27.2444 32.1694C27.4314 32.0631 27.6103 31.9614 27.7811 31.8628C28.6519 31.363 29.2952 30.9474 29.7751 30.4625C30.0967 30.131 30.359 29.7699 30.6014 29.2701Z" fill="#3375BB"/>
</svg>
