<svg width="50" height="50" viewBox="0 0 50 50" fill="none" xmlns="http://www.w3.org/2000/svg">
<rect width="50" height="50" rx="25" fill="#F7F7FA"/>
<path d="M35.2814 11.6006L33.6324 20.5436L28.4498 20.0568L28.285 11.0253C28.2484 9.0249 29.8811 7.39456 31.8814 7.43386C34.0574 7.47661 35.676 9.46025 35.2814 11.6006Z" fill="#CF884E"/>
<path d="M14.2997 11.6006L15.9487 20.5436L21.1313 20.0568L21.2961 11.0253C21.3326 9.0249 19.7 7.39456 17.6997 7.43386C15.5237 7.47661 13.9051 9.46025 14.2997 11.6006Z" fill="#CF884E"/>
<path d="M42.4285 31.9673C42.4285 37.8633 34.5323 42.6429 24.7919 42.6429C15.0515 42.6429 7.15527 37.8633 7.15527 31.9673C7.15527 26.0713 15.0515 21.2917 24.7919 21.2917C34.5323 21.2917 42.4285 26.0713 42.4285 31.9673Z" fill="#FFDE91"/>
<path d="M42.4285 29.1736C42.4285 35.0696 34.5323 39.8492 24.7919 39.8492C15.0515 39.8492 7.15527 35.0696 7.15527 29.1736C7.15527 23.2776 15.0515 18.498 24.7919 18.498C34.5323 18.498 42.4285 23.2776 42.4285 29.1736Z" fill="#CF884E"/>
<path fill-rule="evenodd" clip-rule="evenodd" d="M17.8301 7.74054C15.9331 7.74054 14.4785 9.4249 14.7546 11.3017L16.1536 20.8088L15.4868 21.0726C10.8013 22.9268 8.06006 25.988 8.06006 29.1732V31.9678C8.06006 34.4769 9.74445 36.8993 12.7893 38.7424C15.8174 40.5753 20.0587 41.7384 24.7916 41.7384C29.5246 41.7384 33.7659 40.5753 36.794 38.7424C39.8389 36.8993 41.5233 34.4769 41.5233 31.9678V29.1732C41.5233 26.0196 38.8374 22.988 34.2328 21.1272L33.5729 20.8605L34.9788 11.3062C35.255 9.42944 33.8004 7.74508 31.9034 7.74508C30.1865 7.74508 28.7948 9.13684 28.7948 10.8537V19.669L27.7932 19.5616C26.8196 19.4572 25.8166 19.4026 24.7916 19.4026C23.8177 19.4026 22.8634 19.4519 21.9355 19.5464L20.9387 19.6479V10.8491C20.9387 9.13231 19.547 7.74054 17.8301 7.74054ZM12.9639 11.5652C12.5269 8.59561 14.8285 5.93048 17.8301 5.93048C20.5466 5.93048 22.7488 8.13264 22.7488 10.8491V17.6613C23.4197 17.6158 24.1013 17.5926 24.7916 17.5926C25.5335 17.5926 26.2653 17.6195 26.9847 17.6718V10.8537C26.9847 8.13718 29.1869 5.93502 31.9034 5.93502C34.9049 5.93502 37.2066 8.60015 36.7696 11.5698L35.5691 19.7278C40.0966 21.7373 43.3333 25.1091 43.3333 29.1732V31.9678C43.3333 35.3546 41.0696 38.2701 37.7313 40.2908C34.3762 42.3217 29.7991 43.5485 24.7916 43.5485C19.7842 43.5485 15.2071 42.3217 11.852 40.2908C8.5137 38.2701 6.25 35.3546 6.25 31.9678V29.1732C6.25 25.0675 9.55227 21.6687 14.1559 19.6656L12.9639 11.5652Z" fill="#613204"/>
<path d="M20.2558 28.4366C20.2558 30.0573 19.3372 31.3711 18.2041 31.3711C17.0709 31.3711 16.1523 30.0573 16.1523 28.4366C16.1523 26.8159 17.0709 25.5021 18.2041 25.5021C19.3372 25.5021 20.2558 26.8159 20.2558 28.4366Z" fill="#633100"/>
<path d="M33.4316 28.4366C33.4316 30.0573 32.513 31.3711 31.3799 31.3711C30.2467 31.3711 29.3281 30.0573 29.3281 28.4366C29.3281 26.8159 30.2467 25.5021 31.3799 25.5021C32.513 25.5021 33.4316 26.8159 33.4316 28.4366Z" fill="#633100"/>
</svg>
