<svg width="50" height="50" viewBox="0 0 50 50" fill="none" xmlns="http://www.w3.org/2000/svg">
<path fill-rule="evenodd" clip-rule="evenodd" d="M25 0C38.805 0 50 11.195 50 25C50 38.805 38.805 50 25 50C11.195 50 0 38.805 0 25C0 11.195 11.195 0 25 0Z" fill="#006AE3"/>
<path d="M23.9697 35.5394V14.7394H26.2347V35.5394H23.9697Z" fill="white"/>
<path d="M35.4999 21.6697L28.5049 23.5247L26.9449 16.2647L29.0249 15.7947L29.8449 19.2347C29.8449 19.2347 31.7349 16.1347 29.2149 12.9247C27.7299 11.2747 27.0249 11.2047 25.3599 10.9447C23.8949 10.7347 20.4899 11.2297 19.4749 15.2047C19.0449 17.7647 19.5299 19.6597 22.8299 22.1397L22.6449 24.8997C22.6449 24.8997 18.9599 22.3047 18.0099 20.4847C17.2749 19.0447 16.0149 16.1997 18.2899 12.2397C19.5149 10.2597 21.9299 8.35968 26.1849 8.55968C28.3249 8.64968 33.5499 11.2647 32.7399 17.3747C32.5999 18.5197 32.0049 20.0447 32.0049 20.0447L34.8749 19.4047L35.4999 21.6697Z" fill="white"/>
<path d="M31.5048 37.9447C30.2248 39.8897 27.7598 41.7247 23.5148 41.4147C21.3748 41.2697 16.2248 38.5147 17.1948 32.4297C17.3648 31.2897 17.9998 29.7847 17.9998 29.7847L15.1148 30.3447L14.5498 28.0697L21.5948 26.3997L22.9648 33.6997L20.8698 34.1147L20.1398 30.6497C20.1398 30.6497 18.1698 33.6947 20.5998 36.9747C22.0398 38.6647 22.7398 38.7497 24.4048 39.0547C25.8598 39.3047 29.2798 38.8947 30.3998 34.9497C30.8948 32.4047 30.4598 30.4947 27.2298 27.9247L27.4898 25.1697C27.4898 25.1697 31.1048 27.8597 32.0048 29.7047C32.6948 31.1697 33.8798 34.0497 31.5048 37.9447V37.9447Z" fill="white"/>
</svg>
