<svg width="50" height="50" viewBox="0 0 50 50" fill="none" xmlns="http://www.w3.org/2000/svg">
<g clip-path="url(#clip0_41_398)">
<path d="M21.915 24.9964L40.9753 35.675C41.1285 35.765 41.3034 35.8135 41.4821 35.8156C41.6608 35.8176 41.8369 35.773 41.9921 35.6865C42.1474 35.5999 42.2763 35.4745 42.3656 35.323C42.4549 35.1716 42.5013 34.9996 42.5001 34.8248V15.153C42.5024 14.9779 42.4565 14.8054 42.3672 14.6536C42.278 14.5018 42.1486 14.3763 41.9928 14.2901C41.8369 14.204 41.6602 14.1604 41.4812 14.164C41.3022 14.1675 41.1275 14.2181 40.9753 14.3103L21.915 24.9964Z" fill="#31CB9E"/>
<path d="M40.571 9.58235L27.5414 0.208746C27.4064 0.107441 27.2481 0.0401532 27.0803 0.0128131C26.9126 -0.014527 26.7405 -0.00107976 26.5793 0.0519695C26.4181 0.105019 26.2727 0.196041 26.156 0.317013C26.0392 0.437985 25.9547 0.585192 25.9098 0.745658L21.1523 21.6256L40.4566 11.1856C40.6035 11.1117 40.7284 11.002 40.8193 10.8671C40.9102 10.7322 40.964 10.5767 40.9755 10.4155C40.987 10.2543 40.9558 10.093 40.8849 9.94703C40.8141 9.80109 40.7059 9.67549 40.571 9.58235" fill="#31CB9E"/>
<path d="M27.5261 49.7763L40.571 40.4027C40.7077 40.3087 40.8175 40.1819 40.8898 40.0344C40.9621 39.887 40.9944 39.7238 40.9837 39.5606C40.973 39.3974 40.9196 39.2397 40.8286 39.1025C40.7377 38.9653 40.6122 38.8532 40.4642 38.7771L21.1523 28.3371L25.9098 49.217C25.9493 49.3793 26.0293 49.5294 26.1427 49.6539C26.2562 49.7783 26.3995 49.8733 26.5597 49.9302C26.72 49.9872 26.8922 50.0043 27.0608 49.98C27.2295 49.9557 27.3894 49.8909 27.5261 49.7912" fill="#31CB9E"/>
<path d="M16.9598 24.6085L21.9155 1.93885C21.9534 1.751 21.933 1.55637 21.8571 1.37987C21.7812 1.20338 21.6532 1.05306 21.4895 0.948149C21.3257 0.843238 21.1337 0.788511 20.9379 0.790973C20.7422 0.793435 20.5516 0.852975 20.3907 0.96197L7.69655 10.4847C7.37511 10.7259 7.11498 11.0365 6.93645 11.3922C6.75791 11.7479 6.6658 12.1392 6.6673 12.5354V36.6965C6.66106 37.0978 6.75089 37.4949 6.92961 37.8562C7.10832 38.2174 7.37097 38.5328 7.69655 38.777L20.3297 48.2699C20.4907 48.3789 20.6812 48.4385 20.8769 48.4409C21.0727 48.4434 21.2647 48.3887 21.4285 48.2838C21.5922 48.1789 21.7202 48.0285 21.7961 47.852C21.8721 47.6756 21.8924 47.4809 21.8545 47.2931L16.9598 24.6085Z" fill="#31CB9E"/>
</g>
<defs>
<clipPath id="clip0_41_398">
<rect width="35.8333" height="50" fill="white" transform="translate(6.66699)"/>
</clipPath>
</defs>
</svg>
