<svg width="50" height="50" viewBox="0 0 50 50" fill="none" xmlns="http://www.w3.org/2000/svg">
<path fill-rule="evenodd" clip-rule="evenodd" d="M25 0C38.805 0 50 11.195 50 25C50 38.805 38.805 50 25 50C11.195 50 0 38.805 0 25C0 11.195 11.195 0 25 0Z" fill="url(#paint0_linear_41_344)"/>
<path d="M22.3558 21.4637C23.3035 23.1396 21.184 23.6591 20.1893 23.7548C18.6821 23.902 18.37 23.0293 18.6644 21.933C18.7611 21.5405 18.9755 21.1874 19.2786 20.9216C19.5819 20.6557 19.9591 20.4899 20.3593 20.4468C20.7535 20.4105 21.15 20.4866 21.5032 20.6665C21.8563 20.8465 22.1519 21.1227 22.3558 21.4637Z" fill="#D800A8"/>
<path d="M28.2723 18.3624C27.1707 26.8263 42.0209 25.0651 41.7382 31.8015C43.203 29.8885 43.8329 24.6913 39.5205 22.0162C35.6784 19.6309 30.6716 20.936 28.2723 18.3624Z" fill="#D800A8"/>
<path d="M36.8252 15.1711C36.7285 15.0814 36.6288 14.9931 36.5322 14.9048C36.6304 14.9945 36.7285 15.0887 36.8252 15.1711Z" fill="#D800A8"/>
<path d="M40.2771 21.3402L40.2683 21.3269C40.1343 21.0767 39.9814 20.8372 39.8113 20.6103C39.3107 19.9289 38.5925 19.4407 37.7768 19.2271C37.2336 19.0863 36.6783 18.9986 36.1185 18.9652C35.5516 18.9239 34.973 18.9003 34.3886 18.8696C33.2168 18.8047 32.0171 18.6841 30.8452 18.3486C30.5522 18.2647 30.2594 18.1735 29.9766 18.0632C29.8302 18.0102 29.6939 17.9528 29.5489 17.891C29.4039 17.8292 29.256 17.7585 29.1094 17.6835C28.5585 17.3803 28.048 17.008 27.5905 16.5755C26.6882 15.7324 25.9793 14.7758 25.2688 13.8488C24.5991 12.9182 23.8802 12.0242 23.1155 11.1707C22.361 10.3346 21.4691 9.63478 20.4789 9.10182C19.4535 8.58301 18.3397 8.2635 17.1963 8.16007C18.3825 8.03068 19.5825 8.17772 20.703 8.58975C21.8336 9.03068 22.8672 9.69009 23.7454 10.5306C24.3186 11.0707 24.8569 11.6473 25.3566 12.2567C29.0772 11.5209 32.0947 12.1743 34.4135 13.4427L34.4663 13.4692C35.2043 13.8713 35.896 14.3539 36.5286 14.9083C36.6297 14.9966 36.7294 15.0849 36.8216 15.1746C37.3155 15.6305 37.7752 16.1224 38.1971 16.6461L38.2293 16.6888C39.5989 18.431 40.2757 20.2424 40.2771 21.3402Z" fill="#D800A8"/>
<path d="M40.2753 21.3398L40.2666 21.322L40.2753 21.3398Z" fill="#D800A8"/>
<path d="M17.3846 9.25024C18.3338 9.38857 19.3021 9.76821 19.926 10.4922C20.5501 11.2162 20.7801 12.1579 20.9602 13.054C21.1066 13.7486 21.2224 14.4564 21.4949 15.1141C21.6266 15.4349 21.8201 15.7159 21.9812 16.0191C22.1144 16.2706 22.3576 16.4973 22.4513 16.7666C22.4682 16.8053 22.4744 16.8477 22.4694 16.8895C22.4646 16.9314 22.4488 16.9712 22.4235 17.005C22.0926 17.3728 21.199 16.9637 20.8621 16.7989C20.2796 16.5089 19.758 16.1094 19.3255 15.6218C17.9735 14.1135 17.2748 11.9431 17.3173 9.96685C17.3266 9.72693 17.3491 9.4877 17.3846 9.25024Z" fill="#D800A8"/>
<path d="M33.2598 26.2588C31.209 32.0079 40.5106 35.8647 37.0257 41.7094C40.6013 40.2261 42.299 35.7455 40.8152 32.1904C39.5174 29.0694 35.6796 27.9319 33.2598 26.2588Z" fill="#D800A8"/>
<path d="M20.958 33.7769C21.5168 33.3537 22.1279 33.005 22.7758 32.7395C23.4313 32.4759 24.1114 32.2787 24.806 32.1509C26.1844 31.8875 27.5482 31.8228 28.6936 31.3592C29.2596 31.1372 29.7803 30.8131 30.2302 30.4028C30.6657 29.9964 30.9989 29.492 31.2029 28.9312C31.4116 28.3395 31.4964 27.7108 31.4518 27.0845C31.4 26.4119 31.2485 25.7508 31.0021 25.1231C31.5127 25.6565 31.8846 26.3083 32.0846 27.0205C32.2846 27.7328 32.3068 28.4836 32.1491 29.2064C31.9699 29.9717 31.583 30.672 31.0314 31.2297C30.4855 31.77 29.8271 32.182 29.1038 32.4364C28.4135 32.6795 27.6935 32.8281 26.9636 32.8778C26.2605 32.9367 25.5808 32.9528 24.913 32.9925C23.5625 33.0495 22.2286 33.3139 20.958 33.7769Z" fill="#D800A8"/>
<path d="M34.0781 43.8826C33.8715 44.0474 33.6649 44.2226 33.4379 44.3755C33.2095 44.5268 32.9699 44.6605 32.7217 44.7758C32.2045 45.0293 31.6359 45.1587 31.0606 45.154C29.502 45.1246 28.4004 43.9591 27.756 42.6421C27.3165 41.7446 27.0134 40.7748 26.4918 39.9199C25.7462 38.6971 24.4704 37.7127 22.9763 37.8951C22.367 37.9716 21.7957 38.2468 21.4573 38.778C20.5667 40.1657 21.8456 42.1094 23.4759 41.8343C23.6145 41.813 23.7501 41.7755 23.8801 41.7224C24.0096 41.6671 24.1304 41.5932 24.239 41.5032C24.4667 41.3127 24.6384 41.0635 24.7356 40.7823C24.8426 40.489 24.8665 40.1715 24.8043 39.8654C24.7374 39.5455 24.5495 39.2643 24.2799 39.0812C24.5934 39.2285 24.8374 39.4923 24.9612 39.8169C25.0893 40.1508 25.1223 40.5143 25.0564 40.866C24.9923 41.2326 24.8315 41.5752 24.5906 41.8579C24.4626 42.0032 24.3146 42.1296 24.151 42.233C23.989 42.3354 23.8154 42.4179 23.634 42.4788C23.266 42.6052 22.8745 42.6458 22.4885 42.598C21.9467 42.5205 21.4357 42.2979 21.0092 41.9535C20.5053 41.5532 20.1303 41.0294 19.6746 40.5791C19.1524 40.0287 18.5364 39.5766 17.8554 39.2444C17.3859 39.0373 16.8945 38.8843 16.3906 38.7883C16.1371 38.7354 15.8809 38.6971 15.6245 38.6648C15.5073 38.653 14.9331 38.5249 14.8525 38.5999C15.6448 37.8673 16.5085 37.2166 17.4306 36.6576C18.3773 36.0932 19.3939 35.6565 20.454 35.3583C21.5531 35.0476 22.7028 34.959 23.8362 35.0979C24.4196 35.1682 24.991 35.3168 25.5353 35.5393C26.1056 35.7682 26.632 36.0948 27.0909 36.5046C27.5453 36.9344 27.9123 37.4487 28.172 38.0188C28.4063 38.5524 28.5813 39.1105 28.6934 39.683C29.0274 41.3943 28.9043 44.0474 31.1353 44.4388C31.2515 44.4615 31.3688 44.4782 31.4868 44.4888L31.8515 44.4977C32.1023 44.4798 32.3515 44.4438 32.5971 44.3902C33.106 44.2701 33.6021 44.0999 34.0781 43.8826Z" fill="#D800A8"/>
<path d="M21.1161 42.0182L21.0576 41.9723L21.1161 42.0182Z" fill="#D800A8"/>
<path d="M19.1137 17.865C19.0324 18.1786 18.8905 18.4731 18.6962 18.7317C18.3345 19.2034 17.8555 19.5713 17.3076 19.7986C16.8148 20.0119 16.2929 20.1497 15.7593 20.2077C15.6435 20.2223 15.5235 20.2311 15.4078 20.24C15.0698 20.2528 14.7449 20.3741 14.4805 20.5859C14.2161 20.7978 14.0262 21.0891 13.9386 21.4172C13.8984 21.5805 13.8686 21.7461 13.8492 21.9131C13.7965 22.3456 13.7877 22.7959 13.7408 23.3403C13.626 24.2669 13.3593 25.1678 12.9513 26.0067C12.421 27.128 11.8263 28.0314 11.964 29.3234C12.0548 30.1622 12.4825 30.7242 13.0509 31.3041C14.0762 32.3577 16.3716 32.8284 15.859 35.4242C15.5498 36.9736 12.9923 38.5997 9.39767 39.1677C9.75509 39.1131 8.93919 37.7314 8.88792 37.6431C8.50269 37.0369 8.08083 36.4659 7.77469 35.8083C7.17411 34.5325 6.8958 33.0566 7.14189 31.6586C7.40116 30.1872 8.48511 29.06 9.38597 27.9358C10.4582 26.5983 11.5832 24.8458 11.8322 23.1094C11.8908 22.6886 11.9318 22.1617 12.0255 21.6378C12.1149 21.0575 12.2959 20.4952 12.5616 19.9722C12.743 19.6291 12.9819 19.32 13.2677 19.0584C13.4167 18.9195 13.515 18.7344 13.5469 18.5327C13.5787 18.3309 13.5423 18.1244 13.4435 17.9459L7.71316 7.59259L15.9438 17.7958C16.0376 17.9141 16.156 18.0102 16.2909 18.0772C16.4257 18.1442 16.5737 18.1808 16.724 18.1839C16.8745 18.1872 17.0237 18.1572 17.1613 18.0959C17.2988 18.0347 17.4213 17.9438 17.5201 17.8297C17.6243 17.7075 17.6834 17.553 17.6874 17.3922C17.6913 17.2314 17.6401 17.0741 17.542 16.9469C17.0045 16.2567 16.436 15.5533 15.8852 14.8617L13.8141 12.2866L9.65695 7.14527L3.98828 0L10.1901 6.6847L14.6153 11.5994L16.8227 14.0627C17.5551 14.8912 18.2876 15.6931 19.0199 16.5642L19.1401 16.7114L19.1665 16.9394C19.2021 17.2488 19.1843 17.5619 19.1137 17.865Z" fill="#D800A8"/>
<path d="M21.0107 41.9468C20.613 41.6382 20.2591 41.2762 19.959 40.8712C20.281 41.2568 20.6326 41.6165 21.0107 41.9468Z" fill="#D800A8"/>
<path d="M50.0003 9.16667C50.0003 14.2293 45.8963 18.3333 40.8337 18.3333C35.771 18.3333 31.667 14.2293 31.667 9.16667C31.667 4.10406 35.771 0 40.8337 0C45.8963 0 50.0003 4.10406 50.0003 9.16667Z" fill="white"/>
<path d="M37.7721 10.8556L39.0836 6.97527H40.5212L38.3734 12.3997H37.1649L35 6.97527H36.4433L37.7721 10.8556Z" fill="black"/>
<path d="M42.9152 8.19352H43.7629C44.1905 8.19017 44.5284 8.09325 44.7766 7.90274C45.0286 7.71223 45.1546 7.4365 45.1546 7.07553C45.1546 6.72794 45.0496 6.45889 44.8396 6.26838C44.6334 6.07453 44.3165 5.97761 43.8889 5.97761C43.5147 5.97761 43.2073 6.07286 42.9668 6.26337C42.7262 6.45053 42.606 6.69619 42.606 7.00033H41.2142C41.2142 6.626 41.3268 6.28509 41.5521 5.97761C41.7812 5.67012 42.0981 5.43115 42.5029 5.2607C42.9114 5.0869 43.3677 5 43.8717 5C44.7041 5 45.357 5.18382 45.8305 5.55147C46.3078 5.91578 46.5464 6.4238 46.5464 7.07553C46.5464 7.40307 46.4261 7.71223 46.1856 8.00301C45.9488 8.29044 45.6415 8.50769 45.2635 8.65475C45.7217 8.79178 46.0691 9.00735 46.3058 9.30147C46.5464 9.59559 46.6667 9.94652 46.6667 10.3543C46.6667 11.0094 46.4089 11.5307 45.8935 11.9184C45.3818 12.3061 44.7079 12.5 43.8717 12.5C43.0699 12.5 42.4131 12.3128 41.9015 11.9385C41.3898 11.5642 41.134 11.0662 41.134 10.4445H42.5258C42.5258 10.7654 42.648 11.0261 42.8923 11.2266C43.1405 11.4271 43.4727 11.5274 43.8889 11.5274C44.3204 11.5274 44.6602 11.4271 44.9084 11.2266C45.1565 11.0261 45.2806 10.7353 45.2806 10.3543C45.2806 9.96992 45.1508 9.67413 44.8912 9.46691C44.6315 9.25969 44.2459 9.15608 43.7343 9.15608H42.9152V8.19352Z" fill="black"/>
<path fill-rule="evenodd" clip-rule="evenodd" d="M40.8337 17.5C45.436 17.5 49.167 13.769 49.167 9.16667C49.167 4.56429 45.436 0.833333 40.8337 0.833333C36.2313 0.833333 32.5003 4.56429 32.5003 9.16667C32.5003 13.769 36.2313 17.5 40.8337 17.5ZM40.8337 18.3333C45.8963 18.3333 50.0003 14.2293 50.0003 9.16667C50.0003 4.10406 45.8963 0 40.8337 0C35.771 0 31.667 4.10406 31.667 9.16667C31.667 14.2293 35.771 18.3333 40.8337 18.3333Z" fill="#D800A8"/>
<defs>
<linearGradient id="paint0_linear_41_344" x1="8.75" y1="3.45831e-07" x2="35.8333" y2="57.0833" gradientUnits="userSpaceOnUse">
<stop stop-color="#FEE3FF"/>
<stop offset="1" stop-color="white"/>
</linearGradient>
</defs>
</svg>
