<svg width="50" height="50" viewBox="0 0 50 50" fill="none" xmlns="http://www.w3.org/2000/svg">
<rect width="50" height="50" rx="25" fill="white"/>
<g clip-path="url(#clip0_41_437)">
<path fill-rule="evenodd" clip-rule="evenodd" d="M47.5355 31.6896L38.5657 44.1929C37.1549 46.1785 34.4177 47.1344 30.8592 46.8418C26.2689 46.4627 20.1836 44.037 14.351 39.8531C8.51845 35.6672 4.26526 30.6811 2.41231 26.4593C1.00155 23.1872 1.02244 20.2983 2.45426 18.3106L11.4032 5.80739C12.835 3.82179 15.5722 2.86582 19.1096 3.1585C23.6999 3.53751 29.8062 5.96533 35.6388 10.1492C41.4713 14.3331 45.7246 19.3192 47.5565 23.541C48.9883 26.8131 48.9463 29.704 47.5355 31.6896ZM13.8036 7.5256C14.7301 6.24118 16.583 5.90853 18.8781 6.09804C23.0683 6.44336 28.5851 8.72577 33.9123 12.5454C39.2395 16.3629 43.1771 20.8626 44.8615 24.7159C45.767 26.8278 46.0615 28.6891 45.135 29.9736L46.3355 30.8306L45.135 29.9736L36.1652 42.4767C35.2598 43.759 33.4068 44.0938 31.1117 43.9022C26.9215 43.559 21.3837 41.2744 16.0565 37.457C10.7293 33.6374 6.79168 29.1377 5.12824 25.2865C4.20176 23.1725 3.92828 21.3111 4.85475 20.0287L13.8036 7.5256Z" fill="white"/>
<path fill-rule="evenodd" clip-rule="evenodd" d="M12.6196 6.96945C15.5464 2.88455 25.4637 4.98179 34.7705 11.6482C44.0774 18.3167 49.2573 27.0486 46.3305 31.1335L37.3816 43.6367C34.4548 47.7216 24.5161 45.6244 15.2092 38.9559C5.90239 32.2874 0.72289 23.5575 3.6497 19.4726L12.6196 6.96945Z" fill="white"/>
<path fill-rule="evenodd" clip-rule="evenodd" d="M11.9678 6.21558C13.2698 4.39278 15.7869 3.59 19.0419 3.8504C23.5338 4.2193 29.4796 6.62792 35.2084 10.7075C40.9155 14.8088 45.1038 19.6914 46.8832 23.8144C48.1852 26.809 48.2285 29.4563 46.9265 31.2791L37.9862 43.7784C36.6842 45.6012 34.1454 46.404 30.9121 46.1436C26.4202 45.753 20.4527 43.3662 14.7456 39.2649C9.01676 35.1853 4.85027 30.3026 3.04917 26.1796C1.74717 23.185 1.70393 20.5377 3.00594 18.7149L11.9678 6.21558ZM45.6897 30.3895V30.3679C46.7313 28.9357 46.5142 26.809 45.4943 24.422C43.78 20.4943 39.7656 15.8721 34.2972 11.9661C28.8505 8.06008 23.1867 5.73822 18.9118 5.39102C16.3078 5.17402 14.2466 5.65151 13.205 7.10541L13.1613 7.19208C12.1848 8.64598 12.402 10.7075 13.422 13.0511C15.1363 17.0005 19.1508 21.6226 24.5975 25.5286C30.0442 29.4346 35.7075 31.7567 39.9824 32.1039C42.5431 32.2992 44.5612 31.8435 45.6245 30.4764L45.6897 30.3679V30.3895ZM31.7585 15.5034C34.4927 17.4564 36.5105 19.7782 37.3568 21.7529C37.8559 22.8596 37.986 23.8362 37.4869 24.5089C37.0095 25.1816 36.0332 25.3769 34.8397 25.2684C32.6914 25.0948 29.8704 23.9229 27.1362 21.9699C24.402 20.0169 22.3837 17.7167 21.5374 15.742C21.06 14.6353 20.9299 13.6587 21.4073 12.986C21.8847 12.3133 22.8614 12.1181 24.0766 12.2049C26.2032 12.4002 29.046 13.5504 31.7585 15.5034Z" fill="#0E0F23"/>
<mask id="mask0_41_437" style="mask-type:alpha" maskUnits="userSpaceOnUse" x="2" y="3" width="46" height="44">
<path fill-rule="evenodd" clip-rule="evenodd" d="M11.9668 6.21564C13.2688 4.39284 15.7859 3.59006 19.0409 3.85047C23.5329 4.21937 29.4787 6.62798 35.2075 10.7076C40.9146 14.8089 45.1028 19.6915 46.8823 23.8145C48.1843 26.8091 48.2275 29.4564 46.9255 31.2792L37.9852 43.7785C36.6832 45.6013 34.1444 46.4041 30.9111 46.1437C26.4192 45.7531 20.4517 43.3662 14.7446 39.2649C9.01578 35.1853 4.84929 30.3027 3.04819 26.1797C1.74619 23.1851 1.70296 20.5378 3.00496 18.715L11.9668 6.21564ZM45.6887 30.3896V30.3679C46.7304 28.9357 46.5133 26.809 45.4934 24.422C43.7791 20.4943 39.7646 15.8722 34.2962 11.9661C28.8495 8.06014 23.1857 5.73828 18.9108 5.39108C16.3068 5.17408 14.2456 5.65157 13.204 7.10547L13.1603 7.19214C12.1838 8.64604 12.4011 10.7075 13.421 13.0511C15.1353 17.0006 19.1498 21.6227 24.5965 25.5287C30.0432 29.4347 35.7066 31.7567 39.9815 32.1039C42.5421 32.2992 44.5602 31.8435 45.6235 30.4764L45.6887 30.3679V30.3896ZM31.7575 15.5034C34.4917 17.4564 36.5096 19.7783 37.3559 21.753C37.855 22.8597 37.9851 23.8362 37.486 24.5089C37.0086 25.1816 36.0322 25.3769 34.8387 25.2684C32.6904 25.0948 29.8694 23.923 27.1352 21.97C24.401 20.017 22.3827 17.7167 21.5364 15.742C21.059 14.6353 20.9289 13.6588 21.4063 12.9861C21.8837 12.3134 22.8604 12.1182 24.0756 12.205C26.2022 12.4003 29.045 13.5504 31.7575 15.5034Z" fill="#0E0F23"/>
</mask>
<g mask="url(#mask0_41_437)">
<path fill-rule="evenodd" clip-rule="evenodd" d="M0.194336 30.8037C0.433036 30.8037 0.823722 31.3696 1.04072 31.524C1.80022 32.0902 2.55964 32.6566 3.34084 33.1199C5.61934 34.5096 7.98448 35.2812 10.3281 34.7665C14.0171 33.943 17.3589 27.5095 21.0696 28.3845C23.1528 28.8477 24.6286 31.7815 26.4514 33.7889C28.1874 35.7962 30.0968 36.6711 32.0281 36.2594C37.7786 35.127 39.9487 23.8035 45.786 24.4212C50.6251 24.9359 48.7372 30.7519 53.381 32.8107C53.4244 32.8622 64.5999 23.0315 64.6867 21.333C65.0122 14.7962 58.8062 -62.2032 59.0883 -62.2032L3.73161 -41.8725L0.194336 30.8037Z" fill="url(#paint0_linear_41_437)"/>
</g>
<path d="M11.0361 10.6873C11.2748 16.3944 16.8952 21.8409 21.2135 25.5299C27.2244 30.6512 36.9029 34.4922 42.3062 33.6242" stroke="white" stroke-width="0.01302" stroke-linecap="round" stroke-linejoin="round" stroke-dasharray="0.03 0.03 0.33 0.33"/>
</g>
<defs>
<linearGradient id="paint0_linear_41_437" x1="19.9847" y1="3.78164" x2="26.0407" y2="34.2699" gradientUnits="userSpaceOnUse">
<stop stop-color="#27B0E6"/>
<stop offset="0.52" stop-color="#C26BB3"/>
<stop offset="1" stop-color="#FA52A0"/>
</linearGradient>
<clipPath id="clip0_41_437">
<rect width="50" height="50" fill="white"/>
</clipPath>
</defs>
</svg>
