<svg width="60" height="60" viewBox="0 0 60 60" fill="none" xmlns="http://www.w3.org/2000/svg">
<circle cx="30" cy="30" r="30" fill="#FE0420"/>
<path fill-rule="evenodd" clip-rule="evenodd" d="M21.9216 21.4913C21.2444 21.5536 20.331 21.723 19.8917 21.8676C19.4525 22.0122 18.7419 22.3549 18.3125 22.6292C17.8831 22.9038 17.2997 23.367 17.0163 23.6589C16.7327 23.9509 16.2869 24.523 16.0254 24.9304C15.764 25.3379 15.3867 26.1464 15.1872 26.7273C14.9875 27.3082 14.6277 28.6267 14.3876 29.6572C14.0603 31.0624 13.9497 31.941 13.9457 33.1705C13.9408 34.6561 13.98 34.8851 14.3621 35.6095C14.594 36.0492 15.0156 36.6053 15.299 36.8451C15.5822 37.0851 16.2445 37.4773 16.7705 37.717C17.3117 37.9636 18.3039 38.236 19.056 38.3447C20.1771 38.5068 20.6181 38.4988 21.8765 38.2932C22.8051 38.1414 23.7696 37.8616 24.4317 37.552C25.1384 37.2214 25.7678 36.7686 26.3082 36.2019C26.7553 35.7332 27.3722 34.8413 27.6792 34.2203C27.9862 33.5991 28.4085 32.3821 28.6178 31.5157C28.8272 30.6494 29.106 29.3229 29.2377 28.5683C29.3692 27.8136 29.4769 26.9019 29.4769 26.5423C29.4769 26.1825 29.3738 25.5412 29.2478 25.1171C29.1218 24.6929 28.8033 24.0528 28.54 23.6946C28.2766 23.3366 27.7402 22.831 27.348 22.5712C26.9558 22.3113 26.3045 21.989 25.9005 21.8549C25.4967 21.7208 24.7132 21.5586 24.1597 21.4944C23.606 21.4302 22.5988 21.4288 21.9216 21.4913ZM33.3379 22.034C33.2178 22.2764 33.0406 22.861 32.944 23.3333C32.8473 23.8056 32.4129 25.8785 31.9785 27.9396C31.5441 30.0007 31.1214 31.9682 31.039 32.3117C30.9567 32.6552 30.698 33.8497 30.464 34.9662C30.2301 36.0826 30.0354 37.242 30.0312 37.5426L30.0234 38.0891L32.0844 38.1327C33.9288 38.1716 34.1605 38.1469 34.2876 37.8985C34.3657 37.7456 34.6677 36.4789 34.9586 35.0833L35.4873 32.5459L37.3616 32.5405C38.3925 32.5375 39.7782 32.4383 40.4407 32.3203C41.1032 32.2021 42.0198 31.934 42.4776 31.7243C42.9354 31.5147 43.5722 31.1131 43.8926 30.8318C44.213 30.5505 44.7107 29.9185 44.9984 29.4275C45.2862 28.9365 45.6436 28.0494 45.7926 27.4563C45.969 26.7543 46.0354 26.0649 45.9828 25.4803C45.9319 24.9155 45.7528 24.328 45.5 23.8967C45.2768 23.516 44.7698 22.9935 44.3603 22.7222C43.9543 22.4534 43.2677 22.1161 42.8344 21.973C42.1986 21.7626 41.2277 21.701 37.8014 21.653L33.5562 21.5935L33.3379 22.034ZM24.2291 25.3123C24.4413 25.4691 24.6901 25.7589 24.7819 25.9561C24.8736 26.1533 24.9487 26.5991 24.9487 26.9465C24.9487 27.294 24.8052 28.282 24.63 29.1424C24.4546 30.0026 24.2132 31.0827 24.0934 31.5424C23.9737 32.0022 23.754 32.6351 23.605 32.9486C23.4562 33.2623 23.0901 33.7564 22.7913 34.0463C22.4928 34.3364 21.9952 34.6441 21.6857 34.7301C21.3762 34.816 20.8573 34.8867 20.5325 34.8872C20.2078 34.8876 19.7029 34.7882 19.4108 34.6662C19.1155 34.5429 18.7711 34.2343 18.6351 33.9712C18.5006 33.7111 18.3905 33.1928 18.3905 32.8195C18.3905 32.4461 18.5653 31.3359 18.7789 30.3524C18.9925 29.369 19.2272 28.3172 19.3007 28.0153C19.3741 27.7134 19.553 27.2215 19.6982 26.9223C19.8435 26.623 20.049 26.2728 20.155 26.1439C20.2608 26.0151 20.4997 25.7801 20.6859 25.6216C20.872 25.4631 21.2925 25.2338 21.6203 25.1117C21.9769 24.9789 22.5428 24.9174 23.0298 24.9585C23.4773 24.9963 24.0169 25.1554 24.2291 25.3123ZM40.773 25.2242C40.9822 25.3196 41.2314 25.5689 41.3268 25.7781C41.4221 25.9875 41.5001 26.3265 41.5001 26.5315C41.5001 26.7365 41.4253 27.1022 41.334 27.3439C41.2427 27.5856 40.9792 27.9854 40.7485 28.2321C40.5178 28.4788 40.1029 28.7775 39.8266 28.8957C39.5113 29.0306 38.7404 29.1107 37.7576 29.1107C36.896 29.1107 36.1912 29.0898 36.1912 29.0642C36.1912 29.0386 36.3668 28.1882 36.5815 27.1743C36.7962 26.1603 36.9719 25.2678 36.9719 25.1908C36.9719 25.1138 37.7415 25.0509 38.6822 25.0509C39.6228 25.0509 40.5636 25.129 40.773 25.2242Z" fill="white"/>
</svg>
