<svg width="60" height="60" viewBox="0 0 60 60" fill="none" xmlns="http://www.w3.org/2000/svg">
<circle cx="30" cy="30" r="30" fill="#8247E5"/>
<path d="M39.9523 23.2289C39.2445 22.8042 38.3242 22.8042 37.5455 23.2289L32.0241 26.4851L28.2723 28.6088L22.7508 31.865C22.0429 32.2898 21.1227 32.2898 20.344 31.865L15.9552 29.3167C15.2473 28.8919 14.7518 28.1133 14.7518 27.2638V22.2378C14.7518 21.3884 15.1765 20.6097 15.9552 20.185L20.2732 17.7074C20.9811 17.2827 21.9014 17.2827 22.68 17.7074L26.9981 20.185C27.706 20.6097 28.2015 21.3884 28.2015 22.2378V25.4941L31.9533 23.2997V20.0434C31.9533 19.194 31.5286 18.4153 30.7499 17.9906L22.7508 13.3185C22.0429 12.8938 21.1227 12.8938 20.344 13.3185L12.2034 17.9906C11.4247 18.4153 11 19.194 11 20.0434V29.4582C11 30.3077 11.4247 31.0864 12.2034 31.5111L20.344 36.1831C21.0519 36.6078 21.9722 36.6078 22.7508 36.1831L28.2723 32.9976L32.0241 30.8032L37.5455 27.6177C38.2534 27.193 39.1737 27.193 39.9523 27.6177L44.2704 30.0953C44.9783 30.5201 45.4738 31.2987 45.4738 32.1482V37.1741C45.4738 38.0236 45.0491 38.8023 44.2704 39.227L39.9523 41.7754C39.2445 42.2001 38.3242 42.2001 37.5455 41.7754L33.2275 39.2978C32.5196 38.8731 32.0241 38.0944 32.0241 37.2449V33.9887L28.2723 36.1831V39.4394C28.2723 40.2888 28.697 41.0675 29.4757 41.4922L37.6163 46.1642C38.3242 46.589 39.2445 46.589 40.0231 46.1642L48.1638 41.4922C48.8716 41.0675 49.3672 40.2888 49.3672 39.4394V30.0245C49.3672 29.1751 48.9424 28.3964 48.1638 27.9717L39.9523 23.2289Z" fill="white"/>
</svg>
